{"glyphs":{"0":{"ha":814,"x_min":34,"x_max":781,"o":"m 424 0 q 219 58 307 0 q 82 235 131 117 q 34 535 34 354 q 37 636 34 583 q 87 889 48 789 q 180 1046 127 989 q 288 1130 234 1103 q 384 1164 342 1157 q 439 1171 426 1171 l 449 1171 q 487 1165 458 1171 q 553 1142 515 1160 q 630 1084 590 1124 q 704 978 669 1045 q 759 807 738 910 q 781 558 781 705 q 768 407 781 485 q 729 256 755 328 q 660 126 702 184 q 559 34 618 68 q 424 0 500 0 m 401 566 q 399 488 399 526 q 410 273 399 345 q 438 201 421 201 q 517 288 476 200 q 566 559 558 375 l 566 602 q 556 790 566 716 q 531 906 547 863 q 499 967 516 948 q 469 991 483 987 q 448 996 455 996 l 443 996 q 420 937 429 996 q 407 780 412 877 q 401 566 403 682 z "},"1":{"ha":503,"x_min":34,"x_max":469,"o":"m 469 720 q 466 209 469 417 q 396 0 464 0 l 312 0 q 189 1 249 0 q 101 276 106 2 q 98 585 98 412 q 101 895 98 762 l 101 968 q 66 989 89 968 q 36 1032 43 1010 q 35 1053 36 1042 q 34 1075 34 1063 q 35 1093 34 1082 q 38 1109 35 1103 q 65 1153 43 1132 q 113 1173 87 1173 l 164 1173 q 320 1171 244 1173 q 451 1169 388 1169 q 469 1020 469 1169 l 469 720 z "},"2":{"ha":777,"x_min":34,"x_max":743,"o":"m 118 7 q 67 42 86 20 q 41 90 49 65 q 34 131 34 115 q 37 163 34 149 q 39 174 39 170 q 58 218 45 200 q 75 240 71 236 q 172 362 104 271 q 303 545 239 453 q 386 669 368 637 q 399 689 392 679 q 439 756 420 723 q 470 823 458 789 q 481 891 481 857 q 480 915 481 903 q 463 968 474 955 q 441 981 451 981 q 432 979 436 981 q 427 977 429 978 q 425 975 425 975 l 314 867 q 286 848 307 859 q 239 837 264 837 l 222 837 q 218 838 221 838 q 194 845 210 839 q 159 867 178 850 q 141 906 149 880 q 134 962 134 932 q 138 1002 134 983 q 204 1100 157 1061 q 309 1159 251 1139 q 415 1181 366 1179 l 422 1181 q 465 1178 433 1181 q 538 1162 496 1175 q 621 1122 579 1149 q 696 1048 663 1095 q 722 996 707 1034 q 741 904 736 958 q 742 882 741 893 q 743 852 743 868 q 734 758 743 811 q 661 527 715 638 q 544 317 608 416 q 491 255 528 288 q 418 207 454 222 q 468 203 429 207 q 552 189 507 199 q 614 165 580 184 q 659 109 649 146 l 659 100 q 651 71 659 92 q 619 30 643 50 q 551 1 595 10 q 496 -4 530 -1 q 476 -6 487 -5 q 468 -7 472 -6 q 341 -10 399 -10 q 220 -7 269 -10 q 172 -3 172 -4 q 142 0 159 -3 q 118 7 125 3 z "},"3":{"ha":825,"x_min":34,"x_max":791,"o":"m 47 210 q 34 296 34 259 q 35 314 34 307 q 36 326 36 320 q 63 391 39 358 q 128 431 86 423 l 137 431 q 162 429 146 431 q 188 420 177 427 q 217 401 198 417 q 251 355 237 385 q 256 342 253 349 q 271 296 263 323 q 336 184 308 199 q 363 201 349 184 q 390 235 378 217 q 407 263 401 254 q 408 265 408 264 q 455 382 440 330 q 474 471 471 435 q 478 523 478 507 l 478 528 q 475 542 477 533 q 469 558 473 551 q 461 569 466 566 q 438 560 448 563 q 408 556 427 557 q 395 555 403 556 q 377 553 387 553 q 264 584 317 553 q 201 659 212 614 l 201 666 q 215 712 201 694 q 248 738 229 729 q 285 750 267 747 q 311 753 303 753 l 345 753 q 406 772 387 753 q 435 819 426 792 q 453 915 453 868 l 453 922 q 452 947 453 939 q 447 960 450 956 q 436 968 443 964 q 431 973 433 971 q 423 975 428 975 q 409 975 418 975 q 399 975 404 975 q 384 973 393 973 q 321 926 353 964 q 257 868 294 894 q 254 867 256 868 q 235 861 248 865 q 204 857 222 857 q 169 863 187 857 q 135 886 151 869 q 105 934 118 903 q 103 949 103 941 q 113 1002 103 972 q 177 1099 130 1059 q 282 1160 223 1139 q 391 1181 341 1181 q 429 1181 408 1181 q 471 1177 450 1180 q 643 1080 581 1158 q 716 906 705 1001 q 718 885 716 896 q 718 863 718 873 q 718 842 718 853 q 716 815 716 830 q 688 716 709 758 q 653 661 667 675 q 659 659 653 660 q 690 644 669 655 q 734 611 711 633 q 774 549 757 588 q 791 450 791 511 q 787 404 791 428 q 786 387 787 395 q 701 177 777 287 q 532 16 625 67 q 451 -4 494 2 q 372 -10 408 -10 l 347 -10 q 160 49 243 -5 q 47 210 77 104 z "},"4":{"ha":784,"x_min":34,"x_max":750,"o":"m 302 365 q 212 363 251 363 q 149 365 174 363 q 129 370 140 366 q 105 379 117 374 q 80 399 94 385 q 56 428 66 412 q 43 453 46 444 q 34 522 34 490 q 80 658 34 560 q 193 866 127 755 q 317 1078 258 976 q 481 1181 376 1181 q 533 1167 503 1181 q 589 1120 563 1153 q 627 1033 616 1088 q 645 873 638 978 q 651 664 651 768 l 651 584 q 688 571 667 582 q 728 535 710 559 q 749 473 746 511 l 749 468 q 750 456 750 462 q 742 420 750 435 q 718 394 733 405 q 656 383 702 384 l 644 383 q 637 263 642 332 q 623 138 631 194 q 616 80 622 111 q 596 19 611 48 q 550 -29 581 -10 q 469 -47 520 -47 q 369 -18 407 -47 q 314 62 331 12 q 297 170 297 111 q 300 250 297 205 q 302 315 301 278 l 302 365 m 307 595 l 309 589 q 339 637 331 603 q 347 705 347 672 q 344 736 347 721 q 340 753 342 746 q 338 760 338 760 l 338 759 q 315 713 326 753 q 304 630 304 673 q 307 595 304 612 z "},"5":{"ha":829,"x_min":34,"x_max":795,"o":"m 47 231 q 41 269 45 250 q 34 328 34 301 q 35 348 34 338 q 36 362 36 356 q 61 429 38 393 q 132 475 85 466 q 192 458 166 475 q 232 422 217 442 q 252 389 248 402 q 255 357 254 381 q 256 309 256 334 q 256 276 256 283 q 271 234 256 252 q 303 204 286 215 q 334 192 321 193 q 343 191 339 191 q 397 222 376 191 q 429 296 418 252 q 439 383 439 340 q 430 443 439 412 q 395 503 420 473 q 323 556 370 532 q 201 599 276 581 q 170 605 194 599 q 120 629 145 612 q 82 676 95 646 q 70 725 73 699 q 66 774 66 751 q 86 1041 66 954 q 159 1156 107 1127 q 202 1170 173 1164 q 263 1177 231 1175 q 317 1180 294 1179 q 340 1181 340 1181 q 487 1176 400 1181 q 642 1150 574 1171 q 718 1082 709 1128 l 718 1078 q 713 1054 718 1071 q 698 1020 709 1038 q 666 989 687 1002 q 611 977 646 977 l 609 977 q 454 969 550 969 l 423 969 q 334 965 376 969 q 271 947 293 962 l 271 851 q 666 750 545 844 q 795 492 788 655 q 787 395 795 450 q 760 277 779 340 q 751 262 758 275 q 700 172 739 231 q 582 58 661 112 q 376 -10 504 4 l 349 -10 q 218 15 283 -10 q 106 94 153 41 q 47 231 60 147 z "},"6":{"ha":798,"x_min":34,"x_max":764,"o":"m 385 -10 q 312 -2 355 -10 q 220 34 268 7 q 130 113 172 60 q 61 253 87 165 q 34 472 34 340 l 34 491 q 42 702 34 579 q 126 953 58 846 q 287 1120 194 1060 q 468 1180 380 1180 q 502 1177 477 1180 q 557 1167 527 1175 q 615 1145 587 1160 q 663 1108 644 1131 q 682 1051 682 1085 q 683 1031 683 1041 q 656 960 683 981 q 595 938 623 938 q 557 945 574 938 q 524 962 539 953 q 500 974 511 968 q 479 979 489 979 q 465 975 471 979 q 432 953 454 975 q 387 895 410 931 q 348 817 364 859 q 331 732 331 774 q 335 699 331 715 q 448 729 391 729 q 594 685 525 729 q 708 576 663 642 q 762 442 753 511 l 764 404 q 755 304 764 370 q 714 162 746 239 q 643 67 690 116 q 532 3 595 18 q 447 -8 491 -6 q 385 -10 403 -10 m 420 252 q 478 282 452 252 q 505 358 505 312 q 478 434 505 404 q 420 465 452 465 q 361 434 387 465 q 335 358 335 404 q 361 282 335 312 q 420 252 387 252 z "},"7":{"ha":821,"x_min":34,"x_max":787,"o":"m 34 1060 l 34 1067 q 61 1128 34 1104 q 132 1164 89 1152 q 223 1177 175 1176 l 340 1179 q 522 1175 416 1179 q 725 1158 628 1171 q 773 1127 759 1152 q 787 1069 787 1103 q 773 989 787 1027 q 734 918 758 951 q 710 881 720 895 q 684 837 698 864 q 647 741 670 809 q 582 537 623 673 q 475 165 541 400 q 457 116 469 145 q 425 59 445 87 q 377 10 405 30 q 313 -10 349 -10 q 227 16 257 -6 q 185 72 196 37 q 174 147 174 106 q 182 243 174 194 q 251 472 196 325 q 363 759 307 620 q 419 899 397 842 q 441 967 441 956 l 355 970 l 134 971 q 62 996 86 979 q 34 1060 38 1013 z "},"8":{"ha":848,"x_min":34,"x_max":814,"o":"m 382 180 q 452 231 420 180 q 483 356 483 281 q 452 482 483 432 q 382 532 420 532 q 312 482 343 532 q 280 356 280 432 q 312 231 280 281 q 382 180 343 180 m 401 752 q 458 788 433 752 q 483 880 483 824 q 458 971 483 935 q 401 1007 433 1007 q 346 971 371 1007 q 320 880 320 935 q 346 788 320 824 q 401 752 371 752 m 690 643 q 736 602 712 627 q 811 437 797 540 q 814 370 814 402 l 814 354 q 704 91 814 192 q 408 -10 593 -10 q 264 19 327 -10 q 158 93 202 47 q 87 189 114 138 q 47 289 60 240 q 34 373 34 337 q 56 515 34 456 q 115 617 78 574 q 173 668 144 650 q 153 703 163 683 q 118 791 129 749 q 108 864 108 833 q 126 988 108 937 q 174 1074 144 1040 q 238 1130 203 1109 q 307 1162 273 1152 q 365 1175 340 1172 q 400 1179 390 1179 l 408 1179 q 474 1172 422 1179 q 587 1140 526 1165 q 697 1062 648 1115 q 758 920 745 1008 q 760 863 760 890 l 760 848 q 690 643 760 721 z "},"9":{"ha":798,"x_min":34,"x_max":764,"o":"m 722 998 q 723 995 722 998 q 736 951 726 987 q 755 845 746 916 q 764 663 764 774 q 760 522 764 600 q 753 476 759 511 q 740 403 747 441 q 726 345 732 365 q 618 132 684 210 q 470 22 552 54 q 296 -10 387 -10 q 260 -7 287 -10 q 201 3 234 -5 q 137 26 168 12 q 86 65 106 41 q 66 123 66 89 q 71 156 66 139 q 85 188 71 166 q 125 229 98 210 q 190 248 151 248 q 242 241 216 248 q 305 202 269 233 q 313 197 307 201 q 324 191 318 194 q 332 188 330 188 q 388 228 356 188 q 443 326 419 268 q 467 436 467 383 q 463 471 467 454 q 349 441 406 441 q 204 485 273 441 q 90 593 135 528 q 36 728 45 659 q 34 766 34 745 q 48 897 34 827 q 83 1008 63 967 q 155 1103 107 1054 q 267 1166 203 1152 q 361 1177 302 1177 q 498 1161 424 1177 q 633 1105 572 1145 q 722 998 694 1065 m 316 889 q 304 873 316 889 q 293 812 293 858 q 315 735 293 766 q 363 705 337 705 q 431 747 392 705 q 469 834 469 789 q 435 908 469 879 q 384 930 408 930 q 357 925 376 930 q 316 889 338 920 z "},"\u001d":{"ha":940,"x_min":0,"x_max":0,"o":""},"\u0000":{"ha":0,"x_min":0,"x_max":0,"o":""}," ":{"ha":444,"x_min":0,"x_max":0,"o":""}," ":{"ha":444,"x_min":0,"x_max":0,"o":""},"!":{"ha":433,"x_min":34,"x_max":399,"o":"m 45 566 q 35 1072 39 798 q 34 1099 35 1085 q 77 1149 37 1133 q 216 1162 156 1162 q 338 1152 289 1162 q 378 1122 362 1145 q 395 1082 395 1100 q 397 834 395 1022 q 399 452 399 646 l 399 342 q 239 273 399 273 l 221 273 q 53 342 53 276 l 53 345 q 45 566 49 438 m 331 216 q 375 192 353 216 q 397 144 397 168 l 397 71 q 376 24 397 47 q 333 0 354 0 l 125 0 q 81 24 103 0 q 58 71 58 47 l 58 144 q 81 192 58 168 q 125 216 103 216 l 331 216 z "},"\"":{"ha":558,"x_min":34,"x_max":524,"o":"m 36 1112 q 60 1157 36 1135 q 107 1179 83 1179 l 180 1179 q 228 1157 204 1179 q 252 1114 252 1135 l 252 962 q 224 880 252 939 q 173 821 197 821 l 100 821 q 52 843 76 821 q 34 920 34 860 q 36 962 34 939 l 36 1112 m 309 1112 q 332 1157 309 1135 q 380 1179 356 1179 l 453 1179 q 500 1157 477 1179 q 524 1114 524 1135 l 524 962 q 497 880 524 939 q 446 821 469 821 l 372 821 q 325 843 349 821 q 307 920 307 860 q 309 962 307 939 l 309 1112 z "},"#":{"ha":1023,"x_min":34,"x_max":989,"o":"m 939 851 q 963 838 951 846 q 982 810 975 829 q 989 759 989 792 q 943 666 986 677 l 763 661 l 744 528 l 913 519 q 953 502 943 515 q 964 473 964 488 q 955 371 964 399 q 923 338 946 344 l 723 339 q 716 289 723 339 q 698 175 709 239 q 677 62 688 111 q 658 8 666 12 q 608 -1 645 -1 q 543 3 579 -1 q 497 22 507 7 q 489 54 491 35 q 486 90 486 73 q 488 122 486 109 q 489 136 489 136 l 511 333 l 434 333 l 412 134 q 395 48 406 83 q 369 8 385 13 q 290 3 334 3 q 248 5 267 3 q 220 13 229 7 q 199 113 199 24 l 223 338 l 136 340 l 133 340 q 74 352 96 340 q 43 379 52 364 q 34 405 34 395 q 34 416 34 405 q 35 441 35 427 q 38 470 36 456 q 44 490 40 484 q 68 519 50 509 q 131 530 87 529 l 239 528 l 259 666 l 157 667 q 86 681 115 669 q 54 737 57 693 l 54 741 q 56 767 54 747 q 64 824 58 786 q 88 854 67 842 q 136 866 109 866 q 151 865 144 866 l 285 864 l 310 1084 q 329 1132 313 1113 q 356 1151 345 1151 q 401 1156 369 1156 q 474 1152 431 1156 q 501 1140 490 1152 q 516 1105 512 1128 q 519 1076 519 1093 l 495 860 l 574 860 l 605 1085 q 623 1134 609 1116 q 651 1152 636 1152 q 675 1156 659 1154 q 711 1157 692 1157 q 745 1156 729 1157 q 769 1153 761 1155 q 796 1141 785 1153 q 810 1105 807 1129 l 785 854 l 939 851 m 535 532 l 549 661 l 480 661 l 454 532 l 535 532 z "},"$":{"ha":841,"x_min":50,"x_max":783,"o":"m 283 812 l 283 935 q 222 892 222 926 q 250 835 222 869 q 283 812 256 828 m 498 283 q 542 325 542 304 q 524 351 542 338 q 498 368 511 359 l 498 283 m 283 136 q 216 157 251 144 q 132 199 172 172 q 63 286 92 227 q 56 311 56 299 q 136 366 56 350 q 175 370 156 370 q 283 330 236 370 l 283 497 q 179 568 239 526 q 50 781 58 652 q 80 912 50 854 q 161 1011 111 970 q 277 1074 212 1053 q 283 1076 279 1075 l 283 1106 q 306 1152 283 1128 q 354 1175 330 1175 l 427 1175 q 475 1152 451 1175 q 498 1104 498 1128 l 498 1095 q 618 1059 571 1088 q 714 949 673 1025 q 726 906 726 925 q 665 851 726 865 q 620 845 640 845 q 543 884 567 845 q 498 916 530 903 l 498 700 q 539 678 518 690 q 783 406 783 529 q 781 382 783 394 q 777 358 781 378 q 763 308 774 338 q 729 245 751 278 q 669 184 707 213 q 574 137 631 155 q 498 122 540 126 l 498 71 q 475 24 498 47 q 427 0 451 0 l 354 0 q 306 24 330 0 q 283 71 283 47 l 283 136 z "},"%":{"ha":1164,"x_min":34,"x_max":1131,"o":"m 578 1100 q 646 1173 602 1149 q 736 1196 690 1196 q 803 1184 772 1196 q 853 1149 834 1172 q 873 1096 873 1127 q 872 1084 873 1090 q 859 1017 871 1075 q 827 890 846 958 l 590 149 q 559 78 576 112 q 519 22 541 44 q 473 0 498 0 q 426 -1 448 -1 q 348 6 382 -1 q 295 32 314 12 q 275 90 275 51 q 297 189 275 128 l 530 951 l 578 1100 m 262 755 q 142 775 194 755 q 62 838 91 796 q 34 945 34 880 q 36 981 34 962 q 77 1087 45 1048 q 151 1144 110 1126 q 227 1166 193 1162 q 271 1171 262 1171 l 277 1171 q 306 1168 284 1171 q 356 1154 328 1165 q 410 1119 384 1143 q 454 1056 437 1096 q 472 953 472 1015 q 460 886 472 920 q 424 821 449 851 q 359 773 399 791 q 262 755 319 755 m 250 956 q 249 928 249 941 q 271 826 249 827 q 318 857 294 826 q 346 954 342 888 l 347 968 q 338 1048 347 1019 q 317 1089 329 1076 q 293 1106 304 1103 q 277 1109 282 1109 l 274 1109 q 256 1064 261 1109 q 250 956 251 1019 m 908 200 q 907 172 907 186 q 930 71 907 71 q 976 101 952 71 q 1004 198 1000 132 l 1005 213 q 996 292 1005 264 q 975 334 987 321 q 952 350 963 347 q 935 353 941 353 l 932 353 q 915 308 920 353 q 908 200 909 263 m 921 -1 q 801 20 852 -1 q 721 83 749 41 q 692 189 692 125 q 694 225 692 206 q 736 332 703 293 q 810 388 768 370 q 886 411 851 406 q 930 415 920 415 l 936 415 q 965 412 943 415 q 1015 398 987 410 q 1069 364 1042 387 q 1113 300 1095 340 q 1131 197 1131 260 q 1119 130 1131 165 q 1082 66 1107 96 q 1017 18 1057 36 q 921 -1 977 -1 z "},"'":{"ha":286,"x_min":34,"x_max":252,"o":"m 36 1112 q 60 1157 36 1135 q 107 1179 83 1179 l 180 1179 q 228 1157 204 1179 q 252 1114 252 1135 l 252 962 q 224 880 252 939 q 173 821 197 821 l 100 821 q 52 843 76 821 q 34 920 34 860 q 36 962 34 939 l 36 1112 z "},"(":{"ha":446,"x_min":34,"x_max":412,"o":"m 317 646 l 317 519 q 326 377 319 434 q 345 272 336 313 q 362 205 353 231 q 382 171 374 182 q 412 96 412 144 q 406 43 412 83 q 333 0 399 2 q 262 16 311 0 q 162 90 214 33 q 71 262 110 146 q 34 583 34 378 q 71 903 34 787 q 162 1076 110 1019 q 262 1149 214 1133 q 333 1165 311 1165 q 410 1096 399 1163 q 412 1069 412 1082 q 382 994 412 1021 q 362 960 374 983 q 345 893 353 935 q 326 788 336 852 q 317 646 319 731 z "},")":{"ha":445,"x_min":34,"x_max":411,"o":"m 127 646 q 119 788 125 731 q 100 893 109 852 q 83 960 92 935 q 62 994 71 983 q 34 1068 34 1021 q 40 1122 34 1081 q 112 1165 45 1163 q 183 1149 134 1165 q 283 1076 231 1133 q 374 903 335 1019 q 411 583 411 787 q 374 262 411 378 q 283 90 335 146 q 183 16 231 33 q 112 0 134 0 q 36 69 45 2 q 34 97 34 84 q 62 171 34 144 q 83 205 71 182 q 100 272 92 231 q 119 377 109 313 q 127 519 125 434 l 127 646 z "},"*":{"ha":674,"x_min":34,"x_max":640,"o":"m 443 349 l 443 311 q 419 263 443 287 q 372 239 395 239 l 298 239 q 251 263 275 239 q 227 311 227 287 l 227 351 l 201 325 q 153 309 186 309 q 102 326 119 309 l 50 378 q 34 428 34 395 q 50 479 34 462 l 178 607 l 53 732 q 38 779 38 747 q 38 797 38 780 q 55 831 38 814 l 106 883 q 157 900 123 900 q 207 884 190 900 l 227 863 l 227 890 q 251 936 227 913 q 298 959 275 959 l 372 959 q 419 936 395 959 q 443 888 443 912 l 443 855 l 472 884 q 521 900 488 900 q 572 882 554 900 l 623 831 q 640 780 640 814 q 623 730 640 747 l 495 602 l 621 477 q 636 430 636 461 q 636 412 636 429 q 619 378 635 395 l 567 326 q 517 309 551 309 l 515 309 q 467 326 483 309 l 443 349 z "},"+":{"ha":787,"x_min":34,"x_max":753,"o":"m 292 493 l 105 493 q 58 517 81 493 q 34 564 34 541 l 34 637 q 58 685 34 661 q 105 709 81 709 l 292 709 l 292 892 q 315 938 292 914 q 363 961 338 961 l 436 961 q 484 937 460 961 q 507 890 507 913 l 507 709 l 685 709 q 730 685 707 709 q 753 637 753 661 l 753 564 q 730 517 753 541 q 683 493 707 493 l 507 493 l 507 312 q 484 264 507 288 q 436 241 460 241 l 363 241 q 315 264 338 241 q 292 312 292 288 l 292 493 z "},"-":{"ha":787,"x_min":34,"x_max":753,"o":"m 34 564 l 34 637 q 58 685 34 661 q 105 709 81 709 l 685 709 q 730 685 707 709 q 753 637 753 661 l 753 564 q 730 517 753 541 q 683 493 707 493 l 105 493 q 58 517 81 493 q 34 564 34 541 z "},".":{"ha":286,"x_min":34,"x_max":252,"o":"m 210 216 q 238 192 224 216 q 252 144 252 168 l 252 71 q 238 24 252 47 q 211 0 224 0 l 77 0 q 48 24 62 0 q 34 71 34 47 l 34 144 q 48 192 34 168 q 77 216 62 216 l 210 216 z "},"/":{"ha":665,"x_min":34,"x_max":631,"o":"m 337 1100 q 404 1173 360 1149 q 495 1196 448 1196 q 562 1184 530 1196 q 612 1149 593 1172 q 631 1096 631 1127 q 631 1084 631 1090 q 617 1017 629 1075 q 585 890 605 958 l 349 149 q 317 78 335 112 q 278 22 300 44 q 231 0 256 0 q 184 -1 207 -1 q 107 6 141 -1 q 53 32 73 12 q 34 90 34 51 q 56 189 34 128 l 289 951 l 337 1100 z "},":":{"ha":286,"x_min":34,"x_max":252,"o":"m 210 838 q 238 814 224 838 q 252 766 252 790 l 252 693 q 238 646 252 669 q 211 622 224 622 l 77 622 q 48 646 62 622 q 34 693 34 669 l 34 766 q 48 814 34 790 q 77 838 62 838 l 210 838 m 210 555 q 238 531 224 555 q 252 484 252 507 l 252 410 q 238 363 252 387 q 211 339 224 339 l 77 339 q 48 363 62 339 q 34 410 34 387 l 34 484 q 48 531 34 507 q 77 555 62 555 l 210 555 z "},";":{"ha":286,"x_min":34,"x_max":252,"o":"m 36 488 q 60 533 36 511 q 107 555 83 555 l 180 555 q 228 533 204 555 q 252 490 252 511 l 252 338 q 224 256 252 315 q 173 197 197 197 l 100 197 q 52 219 76 197 q 34 296 34 236 q 36 338 34 315 l 36 488 m 210 838 q 238 814 224 838 q 252 766 252 790 l 252 693 q 238 646 252 669 q 211 622 224 622 l 77 622 q 48 646 62 622 q 34 693 34 669 l 34 766 q 48 814 34 790 q 77 838 62 838 l 210 838 z "},"<":{"ha":760,"x_min":34,"x_max":726,"o":"m 96 810 q 332 901 227 865 q 498 955 438 937 q 539 968 524 963 q 553 971 545 970 q 566 972 561 972 q 606 960 586 972 q 635 932 627 948 q 684 839 656 901 q 723 712 711 777 l 723 703 q 706 655 723 680 q 667 622 690 631 q 493 567 562 589 q 424 545 425 545 q 524 503 463 526 q 632 463 585 479 q 665 451 652 456 q 708 418 690 444 q 726 372 726 393 q 713 303 726 336 q 687 254 701 271 q 654 230 675 238 q 618 222 634 222 l 602 222 q 397 303 494 256 q 216 396 300 349 q 113 449 162 425 q 44 515 46 500 q 41 534 41 530 q 35 658 35 588 q 34 682 34 671 q 96 810 34 769 z "},"=":{"ha":787,"x_min":34,"x_max":753,"o":"m 34 699 l 34 772 q 58 820 34 796 q 105 844 81 844 l 685 844 q 730 820 707 844 q 753 772 753 796 l 753 699 q 730 652 753 675 q 683 628 707 628 l 105 628 q 58 652 81 628 q 34 699 34 675 m 34 410 l 34 484 q 58 531 34 507 q 105 555 81 555 l 685 555 q 730 531 707 555 q 753 484 753 507 l 753 410 q 730 363 753 387 q 683 339 707 339 l 105 339 q 58 363 81 339 q 34 410 34 387 z "},">":{"ha":760,"x_min":34,"x_max":726,"o":"m 663 810 q 726 682 726 769 q 724 658 726 671 q 718 534 724 588 q 716 515 718 530 q 646 449 713 500 q 544 396 597 425 q 362 303 459 349 q 158 222 266 256 l 142 222 q 105 230 125 222 q 73 254 85 238 q 46 303 58 271 q 34 372 34 336 q 52 418 34 393 q 95 451 69 444 q 127 463 107 456 q 235 503 174 479 q 336 545 296 526 q 266 567 335 545 q 92 622 197 589 q 53 655 70 631 q 37 703 37 680 l 37 712 q 76 839 48 777 q 124 932 104 901 q 153 960 133 948 q 194 972 174 972 q 207 971 199 972 q 220 968 215 970 q 261 955 235 963 q 427 901 321 937 q 663 810 533 865 z "},"?":{"ha":795,"x_min":34,"x_max":761,"o":"m 242 281 q 218 356 218 315 q 224 397 218 376 q 297 549 245 472 q 404 692 350 625 q 465 770 439 736 q 497 828 490 805 q 507 890 507 855 q 497 945 507 918 q 461 989 487 972 q 390 1009 436 1007 q 317 987 341 1006 q 286 944 293 968 q 278 901 278 920 q 279 885 278 891 q 280 878 280 878 q 282 861 282 869 q 261 809 282 829 q 208 781 240 789 q 142 772 176 772 q 90 781 115 772 q 49 811 64 791 q 34 863 34 831 q 34 898 34 885 q 34 919 34 911 q 35 929 35 926 q 35 935 35 932 l 39 949 q 95 1067 56 1023 q 185 1133 134 1111 q 288 1161 237 1155 q 378 1168 340 1168 q 421 1167 405 1168 q 434 1166 430 1166 l 453 1166 q 590 1143 532 1166 q 686 1082 648 1120 q 742 995 724 1043 q 761 895 761 946 q 751 823 761 859 l 751 821 q 677 604 717 707 q 585 374 637 500 q 573 347 578 361 q 526 279 553 300 q 462 254 498 258 q 380 250 426 250 l 364 250 q 312 253 334 250 q 281 258 289 256 q 260 266 272 260 q 242 281 249 273 m 500 216 q 545 192 522 216 q 568 144 568 168 l 568 71 q 545 24 568 47 q 502 0 523 0 l 289 0 q 243 24 266 0 q 220 71 220 47 l 220 144 q 243 192 220 168 q 289 216 266 216 l 500 216 z "},"@":{"ha":1267,"x_min":34,"x_max":1233,"o":"m 716 1196 q 990 1135 874 1193 q 1169 984 1105 1078 q 1233 783 1233 890 q 1191 608 1233 699 q 1075 466 1146 532 q 926 358 1004 400 q 788 316 848 316 q 783 317 785 316 q 778 317 781 317 q 757 320 775 317 q 718 333 739 323 q 680 363 696 343 q 663 418 663 384 l 663 420 q 662 417 663 420 q 653 396 661 410 q 630 365 646 381 q 585 337 614 349 q 511 325 556 325 q 405 370 441 331 q 362 454 369 409 q 363 504 362 480 q 372 549 365 528 q 395 613 382 582 q 419 665 408 645 q 575 822 474 760 q 767 884 677 884 q 833 872 803 884 q 849 863 833 872 q 884 833 865 854 q 920 779 904 813 q 935 696 935 745 q 934 669 935 684 q 919 615 934 646 q 887 556 905 585 q 867 519 876 536 q 863 514 867 519 q 855 500 860 508 q 846 486 850 493 q 839 461 840 473 q 837 439 837 448 q 838 427 837 429 q 919 475 887 441 q 976 570 950 509 q 996 685 996 622 q 989 746 996 717 q 970 797 983 776 q 912 870 947 836 q 824 921 878 905 q 792 925 814 924 q 751 926 770 926 q 723 925 734 926 q 508 874 596 908 q 368 796 420 841 q 291 698 315 751 q 267 591 267 646 q 296 461 267 525 q 373 347 326 397 q 476 265 420 296 q 587 235 532 235 l 592 235 q 745 254 659 235 q 844 300 781 268 q 957 353 900 328 q 1044 378 1013 378 q 1093 353 1074 378 q 1115 267 1111 328 l 1115 262 q 1073 162 1115 221 q 916 44 998 85 q 759 -12 834 3 q 629 -26 683 -26 q 606 -27 629 -26 q 526 -22 578 -27 q 409 1 473 -17 q 278 56 344 19 q 158 156 213 93 q 68 313 102 218 q 34 542 34 408 l 34 551 q 38 605 34 556 q 60 727 42 654 q 120 880 79 800 q 236 1032 162 960 q 425 1148 310 1103 q 707 1196 541 1194 l 716 1196 m 564 426 q 588 455 570 430 q 631 517 606 480 q 713 633 671 577 q 778 702 755 690 q 787 709 787 704 q 780 720 787 715 q 760 726 772 726 q 721 713 745 726 q 667 666 697 700 q 602 569 637 632 q 562 488 572 517 q 552 446 552 459 q 554 434 552 438 q 557 428 555 430 q 562 426 559 427 q 564 426 564 426 z "},"A":{"ha":791,"x_min":34,"x_max":758,"o":"m 398 946 q 359 816 379 903 q 306 528 330 687 l 398 527 l 398 946 m 270 254 q 252 85 252 123 q 232 39 252 60 q 191 12 212 18 q 156 9 172 9 q 87 22 118 9 q 51 54 67 31 q 34 100 34 76 q 124 832 45 486 q 394 1170 201 1170 l 416 1170 q 696 1060 634 1170 q 758 227 758 949 l 758 94 q 738 46 758 71 q 693 14 718 20 l 686 14 q 569 0 637 0 q 515 6 557 0 q 437 32 473 12 q 400 94 400 52 l 400 249 l 270 254 z "},"a":{"ha":791,"x_min":34,"x_max":758,"o":"m 398 946 q 359 816 379 903 q 306 528 330 687 l 398 527 l 398 946 m 270 254 q 252 85 252 123 q 232 39 252 60 q 191 12 212 18 q 156 9 172 9 q 87 22 118 9 q 51 54 67 31 q 34 100 34 76 q 124 832 45 486 q 394 1170 201 1170 l 416 1170 q 696 1060 634 1170 q 758 227 758 949 l 758 94 q 738 46 758 71 q 693 14 718 20 l 686 14 q 569 0 637 0 q 515 6 557 0 q 437 32 473 12 q 400 94 400 52 l 400 249 l 270 254 z "},"B":{"ha":844,"x_min":34,"x_max":810,"o":"m 504 1171 q 660 1094 589 1171 q 730 895 730 1016 q 719 799 730 852 q 657 646 701 728 q 771 551 737 605 q 810 420 806 498 l 810 401 q 745 179 810 269 q 596 45 680 89 q 447 2 511 2 l 210 0 q 162 4 201 0 q 84 27 123 9 q 39 82 45 45 l 34 1084 q 55 1133 34 1105 q 100 1169 75 1162 l 504 1171 m 425 865 q 415 800 415 833 q 419 769 415 782 q 431 755 422 757 l 433 755 q 454 773 444 755 q 473 814 465 790 q 488 859 482 838 q 503 939 503 911 l 502 949 q 499 962 502 958 q 493 968 496 966 q 491 969 493 968 q 487 971 490 970 q 481 972 485 972 q 455 950 471 972 q 425 865 440 928 m 454 210 q 495 253 478 210 q 511 356 511 296 q 495 460 511 416 q 454 505 478 505 q 440 508 446 508 q 414 489 423 508 q 402 440 406 469 q 399 380 399 410 l 399 356 q 415 253 399 296 q 454 210 430 210 z "},"b":{"ha":844,"x_min":34,"x_max":810,"o":"m 504 1171 q 660 1094 589 1171 q 730 895 730 1016 q 719 799 730 852 q 657 646 701 728 q 771 551 737 605 q 810 420 806 498 l 810 401 q 745 179 810 269 q 596 45 680 89 q 447 2 511 2 l 210 0 q 162 4 201 0 q 84 27 123 9 q 39 82 45 45 l 34 1084 q 55 1133 34 1105 q 100 1169 75 1162 l 504 1171 m 425 865 q 415 800 415 833 q 419 769 415 782 q 431 755 422 757 l 433 755 q 454 773 444 755 q 473 814 465 790 q 488 859 482 838 q 503 939 503 911 l 502 949 q 499 962 502 958 q 493 968 496 966 q 491 969 493 968 q 487 971 490 970 q 481 972 485 972 q 455 950 471 972 q 425 865 440 928 m 454 210 q 495 253 478 210 q 511 356 511 296 q 495 460 511 416 q 454 505 478 505 q 440 508 446 508 q 414 489 423 508 q 402 440 406 469 q 399 380 399 410 l 399 356 q 415 253 399 296 q 454 210 430 210 z "},"C":{"ha":807,"x_min":34,"x_max":709,"o":"m 422 0 q 34 535 34 0 q 36 637 34 583 l 36 650 q 153 1069 36 952 q 396 1173 256 1173 q 438 1171 416 1173 l 443 1171 q 482 1166 446 1171 q 567 1139 519 1161 q 655 1067 615 1117 q 709 928 696 1017 q 689 880 709 903 q 646 849 668 856 q 594 847 621 847 l 574 847 q 526 879 546 854 q 506 924 506 903 q 482 976 503 955 q 441 996 461 996 q 419 937 427 996 q 407 780 411 877 q 400 567 402 683 l 400 504 q 438 201 400 205 q 509 271 475 203 q 595 327 536 327 q 622 324 608 327 q 698 243 698 309 q 696 202 698 239 q 653 114 694 164 q 554 32 612 63 q 422 0 497 0 z "},"c":{"ha":807,"x_min":34,"x_max":709,"o":"m 422 0 q 34 535 34 0 q 36 637 34 583 l 36 650 q 153 1069 36 952 q 396 1173 256 1173 q 438 1171 416 1173 l 443 1171 q 482 1166 446 1171 q 567 1139 519 1161 q 655 1067 615 1117 q 709 928 696 1017 q 689 880 709 903 q 646 849 668 856 q 594 847 621 847 l 574 847 q 526 879 546 854 q 506 924 506 903 q 482 976 503 955 q 441 996 461 996 q 419 937 427 996 q 407 780 411 877 q 400 567 402 683 l 400 504 q 438 201 400 205 q 509 271 475 203 q 595 327 536 327 q 622 324 608 327 q 698 243 698 309 q 696 202 698 239 q 653 114 694 164 q 554 32 612 63 q 422 0 497 0 z "},"D":{"ha":810,"x_min":34,"x_max":776,"o":"m 41 83 q 36 247 39 131 q 34 503 34 363 q 35 868 34 692 q 39 1098 36 1044 q 56 1141 39 1118 q 97 1171 73 1164 l 476 1166 q 547 1150 498 1166 q 647 1078 595 1134 q 738 906 699 1021 q 776 591 776 791 l 776 584 q 730 257 774 376 q 625 82 686 138 q 511 14 564 27 q 440 0 458 0 l 435 0 l 203 2 q 156 6 194 2 q 82 29 117 11 q 41 83 47 47 m 492 627 q 483 758 490 705 q 465 856 473 818 q 447 918 456 894 q 397 962 429 952 q 374 954 390 962 q 363 836 366 945 q 362 728 362 781 q 363 623 362 675 l 363 538 q 357 345 361 439 q 366 255 359 283 q 381 218 372 227 q 399 210 390 210 l 402 210 q 463 338 435 210 q 492 544 490 466 l 492 627 z "},"d":{"ha":810,"x_min":34,"x_max":776,"o":"m 41 83 q 36 247 39 131 q 34 503 34 363 q 35 868 34 692 q 39 1098 36 1044 q 56 1141 39 1118 q 97 1171 73 1164 l 476 1166 q 547 1150 498 1166 q 647 1078 595 1134 q 738 906 699 1021 q 776 591 776 791 l 776 584 q 730 257 774 376 q 625 82 686 138 q 511 14 564 27 q 440 0 458 0 l 435 0 l 203 2 q 156 6 194 2 q 82 29 117 11 q 41 83 47 47 m 492 627 q 483 758 490 705 q 465 856 473 818 q 447 918 456 894 q 397 962 429 952 q 374 954 390 962 q 363 836 366 945 q 362 728 362 781 q 363 623 362 675 l 363 538 q 357 345 361 439 q 366 255 359 283 q 381 218 372 227 q 399 210 390 210 l 402 210 q 463 338 435 210 q 492 544 490 466 l 492 627 z "},"E":{"ha":794,"x_min":34,"x_max":772,"o":"m 48 1082 q 60 1120 48 1101 q 87 1145 73 1139 q 119 1156 102 1152 q 266 1168 186 1167 q 456 1171 365 1171 q 519 1172 490 1172 q 772 1094 772 1172 q 771 1085 772 1090 q 769 1040 771 1070 q 760 982 768 1010 q 727 943 751 961 q 609 924 703 926 q 450 923 515 923 l 386 923 l 385 745 l 393 745 q 445 748 408 747 q 503 750 481 750 q 554 728 531 750 q 585 684 578 706 q 586 676 585 682 q 589 659 588 669 l 589 659 l 589 572 l 589 572 q 586 555 588 562 q 585 547 585 549 q 554 503 578 525 q 503 481 531 481 q 445 483 481 481 q 393 486 408 484 l 385 486 q 386 333 386 465 l 386 233 l 435 233 q 678 248 625 233 q 689 248 684 248 q 749 191 736 248 q 759 125 757 162 q 760 74 760 89 q 686 18 760 37 q 354 1 616 1 l 314 1 q 228 2 290 1 q 109 24 166 3 q 48 108 52 44 q 34 614 34 471 q 48 1082 34 757 z "},"e":{"ha":794,"x_min":34,"x_max":772,"o":"m 48 1082 q 60 1120 48 1101 q 87 1145 73 1139 q 119 1156 102 1152 q 266 1168 186 1167 q 456 1171 365 1171 q 519 1172 490 1172 q 772 1094 772 1172 q 771 1085 772 1090 q 769 1040 771 1070 q 760 982 768 1010 q 727 943 751 961 q 609 924 703 926 q 450 923 515 923 l 386 923 l 385 745 l 393 745 q 445 748 408 747 q 503 750 481 750 q 554 728 531 750 q 585 684 578 706 q 586 676 585 682 q 589 659 588 669 l 589 659 l 589 572 l 589 572 q 586 555 588 562 q 585 547 585 549 q 554 503 578 525 q 503 481 531 481 q 445 483 481 481 q 393 486 408 484 l 385 486 q 386 333 386 465 l 386 233 l 435 233 q 678 248 625 233 q 689 248 684 248 q 749 191 736 248 q 759 125 757 162 q 760 74 760 89 q 686 18 760 37 q 354 1 616 1 l 314 1 q 228 2 290 1 q 109 24 166 3 q 48 108 52 44 q 34 614 34 471 q 48 1082 34 757 z "},"F":{"ha":793,"x_min":41,"x_max":759,"o":"m 391 527 l 392 401 q 396 101 392 242 q 375 45 396 66 q 324 15 353 25 q 269 3 295 5 q 232 0 242 0 q 181 4 220 0 q 106 27 142 9 q 61 85 71 45 q 46 280 52 144 q 41 594 41 417 l 41 626 q 44 867 43 761 q 52 1036 45 974 q 54 1062 53 1050 l 56 1085 q 68 1119 56 1103 q 96 1146 80 1135 q 124 1161 111 1158 q 241 1171 174 1171 l 689 1166 q 738 1133 721 1159 q 759 1087 755 1107 q 754 1030 759 1063 q 743 975 750 998 q 709 935 733 950 q 612 920 686 920 q 560 920 606 920 q 459 920 514 920 l 412 920 q 410 885 411 909 q 407 832 408 860 q 404 784 405 805 q 403 762 403 763 l 404 762 q 421 761 406 762 q 455 761 435 761 q 491 759 475 760 q 524 748 505 759 q 557 719 543 737 q 572 678 572 701 l 572 606 q 540 552 566 574 q 488 529 514 529 l 391 527 z "},"f":{"ha":793,"x_min":41,"x_max":759,"o":"m 391 527 l 392 401 q 396 101 392 242 q 375 45 396 66 q 324 15 353 25 q 269 3 295 5 q 232 0 242 0 q 181 4 220 0 q 106 27 142 9 q 61 85 71 45 q 46 280 52 144 q 41 594 41 417 l 41 626 q 44 867 43 761 q 52 1036 45 974 q 54 1062 53 1050 l 56 1085 q 68 1119 56 1103 q 96 1146 80 1135 q 124 1161 111 1158 q 241 1171 174 1171 l 689 1166 q 738 1133 721 1159 q 759 1087 755 1107 q 754 1030 759 1063 q 743 975 750 998 q 709 935 733 950 q 612 920 686 920 q 560 920 606 920 q 459 920 514 920 l 412 920 q 410 885 411 909 q 407 832 408 860 q 404 784 405 805 q 403 762 403 763 l 404 762 q 421 761 406 762 q 455 761 435 761 q 491 759 475 760 q 524 748 505 759 q 557 719 543 737 q 572 678 572 701 l 572 606 q 540 552 566 574 q 488 529 514 529 l 391 527 z "},"G":{"ha":789,"x_min":34,"x_max":755,"o":"m 422 0 q 218 58 305 0 q 82 236 130 117 q 34 535 34 355 q 36 637 34 583 q 86 889 47 790 q 179 1046 125 989 q 287 1130 233 1103 q 384 1164 342 1157 q 438 1171 425 1171 l 445 1171 q 473 1167 448 1171 q 532 1152 498 1164 q 599 1110 566 1139 q 655 1030 633 1081 q 678 899 678 979 q 658 851 678 873 q 617 823 638 828 q 596 821 608 823 q 565 818 582 818 q 549 819 558 818 q 531 823 540 821 q 493 851 511 829 q 475 897 475 873 l 475 901 q 472 940 475 917 q 463 979 470 962 q 441 996 455 996 q 419 937 427 996 q 407 780 411 877 q 400 567 402 683 l 400 504 q 438 201 400 205 q 510 274 475 201 q 558 452 545 347 l 504 445 l 494 444 q 450 466 471 444 q 425 533 430 488 q 424 544 425 533 q 422 572 422 555 q 427 621 422 594 q 445 669 431 648 q 486 696 459 690 q 558 705 501 703 q 665 707 615 707 q 715 682 690 707 q 741 630 741 656 q 755 494 755 570 q 744 361 755 430 q 709 228 733 292 q 646 113 685 164 q 552 31 608 61 q 422 0 497 0 z "},"g":{"ha":789,"x_min":34,"x_max":755,"o":"m 422 0 q 218 58 305 0 q 82 236 130 117 q 34 535 34 355 q 36 637 34 583 q 86 889 47 790 q 179 1046 125 989 q 287 1130 233 1103 q 384 1164 342 1157 q 438 1171 425 1171 l 445 1171 q 473 1167 448 1171 q 532 1152 498 1164 q 599 1110 566 1139 q 655 1030 633 1081 q 678 899 678 979 q 658 851 678 873 q 617 823 638 828 q 596 821 608 823 q 565 818 582 818 q 549 819 558 818 q 531 823 540 821 q 493 851 511 829 q 475 897 475 873 l 475 901 q 472 940 475 917 q 463 979 470 962 q 441 996 455 996 q 419 937 427 996 q 407 780 411 877 q 400 567 402 683 l 400 504 q 438 201 400 205 q 510 274 475 201 q 558 452 545 347 l 504 445 l 494 444 q 450 466 471 444 q 425 533 430 488 q 424 544 425 533 q 422 572 422 555 q 427 621 422 594 q 445 669 431 648 q 486 696 459 690 q 558 705 501 703 q 665 707 615 707 q 715 682 690 707 q 741 630 741 656 q 755 494 755 570 q 744 361 755 430 q 709 228 733 292 q 646 113 685 164 q 552 31 608 61 q 422 0 497 0 z "},"H":{"ha":833,"x_min":39,"x_max":800,"o":"m 439 1080 q 458 1126 439 1102 q 505 1156 477 1150 q 522 1159 512 1158 q 573 1166 543 1162 q 636 1171 604 1171 q 695 1165 664 1171 q 753 1146 727 1160 q 785 1117 770 1138 q 800 1075 800 1095 q 783 559 795 806 q 773 319 777 436 q 768 92 768 202 q 747 43 768 61 q 695 16 725 24 q 640 4 666 7 q 604 1 613 1 q 555 6 593 1 q 484 29 518 11 q 441 85 449 47 q 437 186 437 109 q 435 447 436 264 q 435 475 435 460 l 317 479 q 315 125 317 172 q 315 85 315 99 q 296 40 315 64 q 254 9 277 16 q 222 3 242 6 q 180 0 202 0 q 83 18 145 0 q 53 48 66 27 q 40 88 40 69 l 40 109 q 40 149 40 109 q 40 292 40 189 q 40 581 40 395 q 39 1055 39 766 q 72 1141 42 1117 q 178 1166 102 1166 l 193 1166 q 255 1157 228 1165 q 299 1130 283 1149 q 315 1078 315 1112 l 317 758 l 434 756 l 439 1080 z "},"h":{"ha":833,"x_min":39,"x_max":800,"o":"m 439 1080 q 458 1126 439 1102 q 505 1156 477 1150 q 522 1159 512 1158 q 573 1166 543 1162 q 636 1171 604 1171 q 695 1165 664 1171 q 753 1146 727 1160 q 785 1117 770 1138 q 800 1075 800 1095 q 783 559 795 806 q 773 319 777 436 q 768 92 768 202 q 747 43 768 61 q 695 16 725 24 q 640 4 666 7 q 604 1 613 1 q 555 6 593 1 q 484 29 518 11 q 441 85 449 47 q 437 186 437 109 q 435 447 436 264 q 435 475 435 460 l 317 479 q 315 125 317 172 q 315 85 315 99 q 296 40 315 64 q 254 9 277 16 q 222 3 242 6 q 180 0 202 0 q 83 18 145 0 q 53 48 66 27 q 40 88 40 69 l 40 109 q 40 149 40 109 q 40 292 40 189 q 40 581 40 395 q 39 1055 39 766 q 72 1141 42 1117 q 178 1166 102 1166 l 193 1166 q 255 1157 228 1165 q 299 1130 283 1149 q 315 1078 315 1112 l 317 758 l 434 756 l 439 1080 z "},"I":{"ha":566,"x_min":34,"x_max":532,"o":"m 469 978 l 469 720 q 460 199 469 417 q 483 178 460 196 q 511 139 505 161 q 516 103 516 119 q 515 84 516 93 q 511 69 514 75 q 490 31 507 48 q 454 9 473 13 q 312 0 393 0 q 189 1 249 0 q 128 2 149 2 q 79 24 106 2 q 52 75 52 47 l 52 82 q 50 110 50 92 q 54 139 50 123 q 81 181 58 160 q 101 201 101 199 l 101 276 q 98 585 98 412 q 101 895 98 762 l 101 968 q 66 989 89 968 q 36 1032 43 1010 q 35 1053 36 1042 q 34 1075 34 1063 q 35 1093 34 1082 q 38 1109 35 1103 q 65 1153 43 1132 q 113 1173 87 1173 l 164 1173 q 320 1171 244 1173 q 451 1169 388 1169 q 495 1151 471 1169 q 526 1109 519 1133 q 532 1065 532 1082 q 531 1049 532 1058 q 530 1038 530 1043 q 498 995 524 1013 q 469 978 483 983 z "},"i":{"ha":566,"x_min":34,"x_max":532,"o":"m 469 978 l 469 720 q 460 199 469 417 q 483 178 460 196 q 511 139 505 161 q 516 103 516 119 q 515 84 516 93 q 511 69 514 75 q 490 31 507 48 q 454 9 473 13 q 312 0 393 0 q 189 1 249 0 q 128 2 149 2 q 79 24 106 2 q 52 75 52 47 l 52 82 q 50 110 50 92 q 54 139 50 123 q 81 181 58 160 q 101 201 101 199 l 101 276 q 98 585 98 412 q 101 895 98 762 l 101 968 q 66 989 89 968 q 36 1032 43 1010 q 35 1053 36 1042 q 34 1075 34 1063 q 35 1093 34 1082 q 38 1109 35 1103 q 65 1153 43 1132 q 113 1173 87 1173 l 164 1173 q 320 1171 244 1173 q 451 1169 388 1169 q 495 1151 471 1169 q 526 1109 519 1133 q 532 1065 532 1082 q 531 1049 532 1058 q 530 1038 530 1043 q 498 995 524 1013 q 469 978 483 983 z "},"J":{"ha":764,"x_min":34,"x_max":730,"o":"m 304 3 q 303 3 304 3 q 266 12 295 4 q 198 40 237 20 q 122 97 159 60 q 59 193 85 134 q 34 340 34 252 l 34 343 q 53 390 34 366 q 99 421 73 415 q 143 425 118 425 q 182 421 159 425 q 227 391 208 415 q 246 345 246 366 q 248 303 246 328 q 257 256 250 279 q 278 217 264 233 q 315 201 292 201 l 317 201 q 338 238 330 203 q 350 321 346 273 q 355 413 354 369 q 356 474 356 457 l 356 481 q 358 844 356 667 q 363 1082 361 1021 q 382 1127 363 1103 q 427 1158 401 1152 q 541 1168 472 1168 q 570 1168 549 1168 q 618 1163 591 1167 q 671 1148 645 1158 q 713 1121 696 1139 q 730 1076 730 1104 q 720 469 730 761 q 718 431 720 466 q 706 343 715 396 q 673 231 696 290 q 611 119 651 172 q 509 34 571 67 q 356 0 446 0 q 304 3 333 0 z "},"j":{"ha":764,"x_min":34,"x_max":730,"o":"m 304 3 q 303 3 304 3 q 266 12 295 4 q 198 40 237 20 q 122 97 159 60 q 59 193 85 134 q 34 340 34 252 l 34 343 q 53 390 34 366 q 99 421 73 415 q 143 425 118 425 q 182 421 159 425 q 227 391 208 415 q 246 345 246 366 q 248 303 246 328 q 257 256 250 279 q 278 217 264 233 q 315 201 292 201 l 317 201 q 338 238 330 203 q 350 321 346 273 q 355 413 354 369 q 356 474 356 457 l 356 481 q 358 844 356 667 q 363 1082 361 1021 q 382 1127 363 1103 q 427 1158 401 1152 q 541 1168 472 1168 q 570 1168 549 1168 q 618 1163 591 1167 q 671 1148 645 1158 q 713 1121 696 1139 q 730 1076 730 1104 q 720 469 730 761 q 718 431 720 466 q 706 343 715 396 q 673 231 696 290 q 611 119 651 172 q 509 34 571 67 q 356 0 446 0 q 304 3 333 0 z "},"K":{"ha":792,"x_min":34,"x_max":758,"o":"m 396 334 q 399 258 397 296 q 401 98 401 176 q 380 47 401 66 q 328 19 358 28 q 272 7 298 9 q 236 4 245 4 q 185 9 223 4 q 112 31 147 14 q 70 85 77 49 q 47 279 60 142 q 34 596 34 416 l 34 628 q 45 928 36 801 q 65 1101 54 1056 q 87 1138 69 1120 q 126 1159 105 1155 q 180 1167 145 1164 q 254 1171 215 1171 l 278 1171 q 330 1167 300 1171 q 386 1150 360 1163 q 417 1121 404 1141 q 431 1076 431 1100 q 413 885 418 946 l 410 859 l 411 863 q 438 903 416 869 q 483 975 459 937 q 521 1036 507 1014 q 549 1059 530 1048 q 588 1069 569 1069 l 599 1067 q 682 1027 654 1050 q 701 998 694 1015 q 709 968 709 981 q 706 949 709 960 q 700 932 703 939 q 587 758 650 835 q 489 650 524 681 q 537 601 505 635 q 606 517 568 567 q 678 405 644 467 q 735 269 713 342 q 758 117 758 196 q 734 61 758 83 q 676 25 709 39 q 612 6 642 12 q 570 0 582 0 q 523 19 545 0 q 496 58 500 38 q 472 147 489 89 q 433 260 454 205 q 396 334 414 311 z "},"k":{"ha":792,"x_min":34,"x_max":758,"o":"m 396 334 q 399 258 397 296 q 401 98 401 176 q 380 47 401 66 q 328 19 358 28 q 272 7 298 9 q 236 4 245 4 q 185 9 223 4 q 112 31 147 14 q 70 85 77 49 q 47 279 60 142 q 34 596 34 416 l 34 628 q 45 928 36 801 q 65 1101 54 1056 q 87 1138 69 1120 q 126 1159 105 1155 q 180 1167 145 1164 q 254 1171 215 1171 l 278 1171 q 330 1167 300 1171 q 386 1150 360 1163 q 417 1121 404 1141 q 431 1076 431 1100 q 413 885 418 946 l 410 859 l 411 863 q 438 903 416 869 q 483 975 459 937 q 521 1036 507 1014 q 549 1059 530 1048 q 588 1069 569 1069 l 599 1067 q 682 1027 654 1050 q 701 998 694 1015 q 709 968 709 981 q 706 949 709 960 q 700 932 703 939 q 587 758 650 835 q 489 650 524 681 q 537 601 505 635 q 606 517 568 567 q 678 405 644 467 q 735 269 713 342 q 758 117 758 196 q 734 61 758 83 q 676 25 709 39 q 612 6 642 12 q 570 0 582 0 q 523 19 545 0 q 496 58 500 38 q 472 147 489 89 q 433 260 454 205 q 396 334 414 311 z "},"L":{"ha":810,"x_min":36,"x_max":777,"o":"m 396 243 q 525 253 440 245 q 679 270 610 261 q 728 252 701 270 q 763 208 754 233 q 774 125 772 171 q 776 113 775 119 l 777 105 q 758 55 777 78 q 719 24 739 31 q 352 0 577 0 q 219 7 273 0 q 174 12 208 7 q 102 35 140 16 q 55 90 64 53 q 39 285 44 151 q 36 480 36 368 q 38 697 36 550 q 50 1078 40 845 q 137 1160 54 1143 q 256 1171 184 1171 q 310 1167 281 1171 q 366 1157 340 1164 q 410 1123 391 1149 q 429 1072 429 1098 l 429 1065 q 397 615 404 818 q 395 430 395 522 q 395 314 395 367 q 396 243 396 262 z "},"l":{"ha":810,"x_min":36,"x_max":777,"o":"m 396 243 q 525 253 440 245 q 679 270 610 261 q 728 252 701 270 q 763 208 754 233 q 774 125 772 171 q 776 113 775 119 l 777 105 q 758 55 777 78 q 719 24 739 31 q 352 0 577 0 q 219 7 273 0 q 174 12 208 7 q 102 35 140 16 q 55 90 64 53 q 39 285 44 151 q 36 480 36 368 q 38 697 36 550 q 50 1078 40 845 q 137 1160 54 1143 q 256 1171 184 1171 q 310 1167 281 1171 q 366 1157 340 1164 q 410 1123 391 1149 q 429 1072 429 1098 l 429 1065 q 397 615 404 818 q 395 430 395 522 q 395 314 395 367 q 396 243 396 262 z "},"M":{"ha":1184,"x_min":34,"x_max":1150,"o":"m 865 42 q 847 74 854 55 q 841 109 841 92 l 852 560 q 844 677 847 614 q 840 759 842 725 q 832 793 838 793 q 823 751 832 789 q 793 625 814 713 q 772 539 783 587 q 735 465 759 488 q 687 435 711 441 q 654 429 664 429 l 650 429 q 576 432 612 431 q 519 436 540 434 q 481 459 499 441 q 457 499 463 478 q 412 655 440 586 q 359 724 383 724 q 345 648 345 724 q 347 562 345 615 l 364 92 q 340 44 355 66 q 308 16 325 23 q 263 4 287 7 q 217 0 239 0 q 173 5 195 0 q 132 16 151 10 q 99 24 114 21 q 59 52 79 28 q 39 102 39 76 q 37 154 39 119 q 34 330 34 219 q 40 475 34 358 q 64 739 46 592 q 115 1013 81 885 q 177 1104 131 1061 q 273 1157 224 1147 l 357 1171 q 440 1145 404 1171 q 502 1078 476 1119 q 547 987 528 1036 q 576 890 565 938 q 593 805 587 843 q 602 846 593 805 q 631 946 610 887 q 689 1062 652 1004 q 783 1157 726 1120 q 888 1168 824 1168 q 922 1165 897 1168 q 972 1151 947 1162 q 1011 1118 998 1140 q 1099 918 1072 1029 q 1135 608 1126 807 q 1150 266 1150 440 l 1148 97 q 1131 52 1148 73 q 1099 24 1114 31 q 1068 13 1086 18 q 1034 9 1050 9 q 985 13 1019 9 q 917 24 951 16 q 865 42 883 31 z "},"m":{"ha":1184,"x_min":34,"x_max":1150,"o":"m 865 42 q 847 74 854 55 q 841 109 841 92 l 852 560 q 844 677 847 614 q 840 759 842 725 q 832 793 838 793 q 823 751 832 789 q 793 625 814 713 q 772 539 783 587 q 735 465 759 488 q 687 435 711 441 q 654 429 664 429 l 650 429 q 576 432 612 431 q 519 436 540 434 q 481 459 499 441 q 457 499 463 478 q 412 655 440 586 q 359 724 383 724 q 345 648 345 724 q 347 562 345 615 l 364 92 q 340 44 355 66 q 308 16 325 23 q 263 4 287 7 q 217 0 239 0 q 173 5 195 0 q 132 16 151 10 q 99 24 114 21 q 59 52 79 28 q 39 102 39 76 q 37 154 39 119 q 34 330 34 219 q 40 475 34 358 q 64 739 46 592 q 115 1013 81 885 q 177 1104 131 1061 q 273 1157 224 1147 l 357 1171 q 440 1145 404 1171 q 502 1078 476 1119 q 547 987 528 1036 q 576 890 565 938 q 593 805 587 843 q 602 846 593 805 q 631 946 610 887 q 689 1062 652 1004 q 783 1157 726 1120 q 888 1168 824 1168 q 922 1165 897 1168 q 972 1151 947 1162 q 1011 1118 998 1140 q 1099 918 1072 1029 q 1135 608 1126 807 q 1150 266 1150 440 l 1148 97 q 1131 52 1148 73 q 1099 24 1114 31 q 1068 13 1086 18 q 1034 9 1050 9 q 985 13 1019 9 q 917 24 951 16 q 865 42 883 31 z "},"N":{"ha":805,"x_min":41,"x_max":771,"o":"m 519 990 q 522 1081 520 1047 q 642 1164 522 1164 q 764 1072 764 1161 q 771 455 771 785 q 768 87 771 275 q 752 40 768 58 q 714 14 736 23 q 672 3 692 5 q 644 0 652 0 q 603 4 634 0 q 542 24 572 8 q 505 73 513 40 q 451 303 482 194 q 399 470 419 412 q 393 490 395 482 q 391 447 393 478 q 387 329 389 398 q 382 194 385 260 q 380 96 380 128 q 359 46 380 64 q 310 19 338 28 q 256 7 281 9 q 222 5 231 5 q 169 12 210 5 q 93 40 129 20 q 52 96 57 60 q 41 915 42 284 l 41 1079 q 79 1144 41 1114 q 182 1171 111 1171 q 203 1170 193 1171 q 283 1166 246 1170 q 340 1157 321 1162 q 374 1140 356 1153 q 398 1110 392 1127 q 428 1048 408 1090 q 466 973 446 1012 q 500 906 485 934 q 516 880 510 887 q 519 990 517 939 z "},"n":{"ha":805,"x_min":41,"x_max":771,"o":"m 519 990 q 522 1081 520 1047 q 642 1164 522 1164 q 764 1072 764 1161 q 771 455 771 785 q 768 87 771 275 q 752 40 768 58 q 714 14 736 23 q 672 3 692 5 q 644 0 652 0 q 603 4 634 0 q 542 24 572 8 q 505 73 513 40 q 451 303 482 194 q 399 470 419 412 q 393 490 395 482 q 391 447 393 478 q 387 329 389 398 q 382 194 385 260 q 380 96 380 128 q 359 46 380 64 q 310 19 338 28 q 256 7 281 9 q 222 5 231 5 q 169 12 210 5 q 93 40 129 20 q 52 96 57 60 q 41 915 42 284 l 41 1079 q 79 1144 41 1114 q 182 1171 111 1171 q 203 1170 193 1171 q 283 1166 246 1170 q 340 1157 321 1162 q 374 1140 356 1153 q 398 1110 392 1127 q 428 1048 408 1090 q 466 973 446 1012 q 500 906 485 934 q 516 880 510 887 q 519 990 517 939 z "},"O":{"ha":814,"x_min":34,"x_max":781,"o":"m 424 0 q 219 58 307 0 q 82 235 131 117 q 34 535 34 354 q 37 636 34 583 q 87 889 48 789 q 180 1046 127 989 q 288 1130 234 1103 q 384 1164 342 1157 q 439 1171 426 1171 l 449 1171 q 487 1165 458 1171 q 553 1142 515 1160 q 630 1084 590 1124 q 704 978 669 1045 q 759 807 738 910 q 781 558 781 705 q 768 407 781 485 q 729 256 755 328 q 660 126 702 184 q 559 34 618 68 q 424 0 500 0 m 401 566 q 399 488 399 526 q 410 273 399 345 q 438 201 421 201 l 439 201 q 517 288 476 201 q 566 559 558 375 l 566 602 q 556 790 566 716 q 531 906 547 863 q 499 967 516 948 q 469 991 483 987 q 448 996 455 996 l 443 996 q 420 937 429 996 q 407 780 412 877 q 401 566 403 682 z "},"o":{"ha":814,"x_min":34,"x_max":781,"o":"m 424 0 q 219 58 307 0 q 82 235 131 117 q 34 535 34 354 q 37 636 34 583 q 87 889 48 789 q 180 1046 127 989 q 288 1130 234 1103 q 384 1164 342 1157 q 439 1171 426 1171 l 449 1171 q 487 1165 458 1171 q 553 1142 515 1160 q 630 1084 590 1124 q 704 978 669 1045 q 759 807 738 910 q 781 558 781 705 q 768 407 781 485 q 729 256 755 328 q 660 126 702 184 q 559 34 618 68 q 424 0 500 0 m 401 566 q 399 488 399 526 q 410 273 399 345 q 438 201 421 201 l 439 201 q 517 288 476 201 q 566 559 558 375 l 566 602 q 556 790 566 716 q 531 906 547 863 q 499 967 516 948 q 469 991 483 987 q 448 996 455 996 l 443 996 q 420 937 429 996 q 407 780 412 877 q 401 566 403 682 z "},"P":{"ha":798,"x_min":34,"x_max":764,"o":"m 414 1160 q 629 1098 570 1142 q 726 977 688 1055 q 764 799 764 900 q 753 672 764 739 q 691 527 734 586 q 593 434 648 469 q 483 385 538 399 q 388 370 428 370 l 383 338 q 380 283 383 323 q 373 194 376 245 q 370 89 370 143 q 348 40 370 58 q 296 14 326 22 q 240 2 266 5 q 205 0 214 0 q 156 5 195 0 q 82 27 117 9 q 41 82 46 45 q 36 244 37 130 q 34 494 34 357 q 35 849 34 677 q 39 1080 37 1021 q 58 1127 39 1105 q 98 1153 77 1149 q 225 1164 152 1164 l 250 1164 q 414 1160 273 1164 m 396 648 l 396 650 q 399 649 397 649 q 432 689 414 649 q 462 788 450 730 q 475 898 475 846 l 475 899 q 463 938 475 924 q 445 951 452 951 l 444 951 q 410 915 421 948 q 396 836 399 882 q 392 747 393 790 q 392 739 392 743 l 396 648 z "},"p":{"ha":798,"x_min":34,"x_max":764,"o":"m 414 1160 q 629 1098 570 1142 q 726 977 688 1055 q 764 799 764 900 q 753 672 764 739 q 691 527 734 586 q 593 434 648 469 q 483 385 538 399 q 388 370 428 370 l 383 338 q 380 283 383 323 q 373 194 376 245 q 370 89 370 143 q 348 40 370 58 q 296 14 326 22 q 240 2 266 5 q 205 0 214 0 q 156 5 195 0 q 82 27 117 9 q 41 82 46 45 q 36 244 37 130 q 34 494 34 357 q 35 849 34 677 q 39 1080 37 1021 q 58 1127 39 1105 q 98 1153 77 1149 q 225 1164 152 1164 l 250 1164 q 414 1160 273 1164 m 396 648 l 396 650 q 399 649 397 649 q 432 689 414 649 q 462 788 450 730 q 475 898 475 846 l 475 899 q 463 938 475 924 q 445 951 452 951 l 444 951 q 410 915 421 948 q 396 836 399 882 q 392 747 393 790 q 392 739 392 743 l 396 648 z "},"Q":{"ha":829,"x_min":34,"x_max":795,"o":"m 779 212 q 795 178 795 199 q 775 116 795 157 q 727 51 755 74 q 673 27 698 27 l 644 47 l 619 68 q 525 13 565 26 q 422 0 485 0 q 218 58 305 0 q 82 236 130 117 q 34 535 34 355 q 36 637 34 583 q 86 889 47 790 q 179 1046 125 989 q 287 1130 233 1103 q 384 1164 342 1157 q 438 1171 425 1171 l 448 1171 q 486 1165 458 1171 q 552 1142 514 1160 q 629 1084 589 1124 q 702 978 668 1045 q 758 807 736 910 q 779 558 779 705 q 770 408 779 480 q 712 252 760 336 q 779 212 749 237 m 407 420 q 419 264 411 323 q 443 204 428 204 l 448 204 q 468 209 454 204 q 498 234 482 214 q 530 297 515 254 q 555 414 545 340 q 564 643 563 473 l 564 646 q 555 786 563 728 q 530 904 545 861 q 498 967 515 947 q 468 991 482 987 q 448 996 454 996 l 443 996 q 419 937 428 996 q 407 780 411 877 q 404 600 404 717 q 407 420 404 484 z "},"q":{"ha":829,"x_min":34,"x_max":795,"o":"m 779 212 q 795 178 795 199 q 775 116 795 157 q 727 51 755 74 q 673 27 698 27 l 644 47 l 619 68 q 525 13 565 26 q 422 0 485 0 q 218 58 305 0 q 82 236 130 117 q 34 535 34 355 q 36 637 34 583 q 86 889 47 790 q 179 1046 125 989 q 287 1130 233 1103 q 384 1164 342 1157 q 438 1171 425 1171 l 448 1171 q 486 1165 458 1171 q 552 1142 514 1160 q 629 1084 589 1124 q 702 978 668 1045 q 758 807 736 910 q 779 558 779 705 q 770 408 779 480 q 712 252 760 336 q 779 212 749 237 m 407 420 q 419 264 411 323 q 443 204 428 204 l 448 204 q 468 209 454 204 q 498 234 482 214 q 530 297 515 254 q 555 414 545 340 q 564 643 563 473 l 564 646 q 555 786 563 728 q 530 904 545 861 q 498 967 515 947 q 468 991 482 987 q 448 996 454 996 l 443 996 q 419 937 428 996 q 407 780 411 877 q 404 600 404 717 q 407 420 404 484 z "},"R":{"ha":776,"x_min":34,"x_max":743,"o":"m 396 648 l 396 650 q 399 649 397 649 q 432 689 414 649 q 462 788 450 730 q 475 898 475 846 l 475 899 q 463 938 475 924 q 445 951 452 951 l 444 951 q 410 915 421 948 q 396 836 399 882 q 392 747 393 790 q 392 739 392 743 l 396 648 m 505 465 q 555 355 515 404 q 638 273 594 307 q 707 226 682 240 q 723 204 715 220 q 732 167 732 188 q 725 136 732 152 q 656 45 702 87 q 574 4 610 4 q 561 7 568 4 q 454 90 509 32 q 374 203 399 149 l 371 92 q 349 41 371 60 q 298 14 328 23 q 242 2 268 5 q 206 0 216 0 q 157 6 196 0 q 82 30 118 12 q 41 85 46 48 q 36 247 37 133 q 34 498 34 361 q 35 856 34 682 q 39 1088 37 1029 q 58 1133 39 1112 q 99 1160 77 1155 q 222 1171 148 1171 q 279 1173 222 1171 q 378 1167 319 1173 q 500 1143 437 1161 q 618 1090 564 1126 q 708 997 673 1055 q 743 852 743 939 q 742 818 743 836 q 741 799 741 808 q 729 708 739 755 q 666 575 709 628 q 576 496 622 523 q 505 465 530 469 z "},"r":{"ha":776,"x_min":34,"x_max":743,"o":"m 396 648 l 396 650 q 399 649 397 649 q 432 689 414 649 q 462 788 450 730 q 475 898 475 846 l 475 899 q 463 938 475 924 q 445 951 452 951 l 444 951 q 410 915 421 948 q 396 836 399 882 q 392 747 393 790 q 392 739 392 743 l 396 648 m 505 465 q 555 355 515 404 q 638 273 594 307 q 707 226 682 240 q 723 204 715 220 q 732 167 732 188 q 725 136 732 152 q 656 45 702 87 q 574 4 610 4 q 561 7 568 4 q 454 90 509 32 q 374 203 399 149 l 371 92 q 349 41 371 60 q 298 14 328 23 q 242 2 268 5 q 206 0 216 0 q 157 6 196 0 q 82 30 118 12 q 41 85 46 48 q 36 247 37 133 q 34 498 34 361 q 35 856 34 682 q 39 1088 37 1029 q 58 1133 39 1112 q 99 1160 77 1155 q 222 1171 148 1171 q 279 1173 222 1171 q 378 1167 319 1173 q 500 1143 437 1161 q 618 1090 564 1126 q 708 997 673 1055 q 743 852 743 939 q 742 818 743 836 q 741 799 741 808 q 729 708 739 755 q 666 575 709 628 q 576 496 622 523 q 505 465 530 469 z "},"S":{"ha":814,"x_min":34,"x_max":773,"o":"m 384 2 q 358 5 384 2 q 293 17 333 7 q 209 45 254 26 q 124 97 164 64 q 59 179 85 130 q 34 298 34 229 q 47 391 34 339 q 67 426 51 407 q 106 452 83 446 q 165 458 132 458 q 192 457 176 458 q 221 452 208 455 q 256 421 239 444 q 273 380 273 398 q 277 334 274 361 q 291 280 281 307 q 319 235 300 254 q 370 217 338 217 l 382 217 q 399 220 382 217 q 438 229 416 222 q 478 246 460 235 q 495 273 495 257 q 490 289 495 280 q 425 351 463 323 q 346 404 388 378 q 241 477 292 437 q 153 576 191 517 q 102 723 115 635 q 97 795 97 762 q 127 953 97 883 q 208 1072 157 1023 q 323 1147 259 1121 q 456 1173 388 1173 l 465 1173 q 611 1129 555 1169 q 694 1033 666 1088 q 732 924 722 977 q 741 848 741 872 q 724 803 741 829 q 682 770 707 777 q 659 764 675 767 q 621 762 642 762 q 603 762 613 762 q 581 766 593 763 q 540 794 561 770 q 519 841 519 817 q 514 897 519 863 q 495 957 509 931 q 458 985 482 983 l 454 985 q 417 971 427 985 q 407 920 407 958 q 427 848 407 879 q 505 776 449 818 q 591 704 545 745 q 678 608 637 663 q 746 481 720 553 q 773 316 773 410 q 770 288 773 312 q 755 227 766 263 q 722 152 744 191 q 661 79 699 113 q 566 22 623 44 q 429 0 509 0 q 409 1 420 0 q 384 2 397 2 z "},"s":{"ha":814,"x_min":34,"x_max":773,"o":"m 384 2 q 358 5 384 2 q 293 17 333 7 q 209 45 254 26 q 124 97 164 64 q 59 179 85 130 q 34 298 34 229 q 47 391 34 339 q 67 426 51 407 q 106 452 83 446 q 165 458 132 458 q 192 457 176 458 q 221 452 208 455 q 256 421 239 444 q 273 380 273 398 q 277 334 274 361 q 291 280 281 307 q 319 235 300 254 q 370 217 338 217 l 382 217 q 399 220 382 217 q 438 229 416 222 q 478 246 460 235 q 495 273 495 257 q 490 289 495 280 q 425 351 463 323 q 346 404 388 378 q 241 477 292 437 q 153 576 191 517 q 102 723 115 635 q 97 795 97 762 q 127 953 97 883 q 208 1072 157 1023 q 323 1147 259 1121 q 456 1173 388 1173 l 465 1173 q 611 1129 555 1169 q 694 1033 666 1088 q 732 924 722 977 q 741 848 741 872 q 724 803 741 829 q 682 770 707 777 q 659 764 675 767 q 621 762 642 762 q 603 762 613 762 q 581 766 593 763 q 540 794 561 770 q 519 841 519 817 q 514 897 519 863 q 495 957 509 931 q 458 985 482 983 l 454 985 q 417 971 427 985 q 407 920 407 958 q 427 848 407 879 q 505 776 449 818 q 591 704 545 745 q 678 608 637 663 q 746 481 720 553 q 773 316 773 410 q 770 288 773 312 q 755 227 766 263 q 722 152 744 191 q 661 79 699 113 q 566 22 623 44 q 429 0 509 0 q 409 1 420 0 q 384 2 397 2 z "},"T":{"ha":787,"x_min":34,"x_max":753,"o":"m 34 1017 l 34 1090 q 58 1138 34 1114 q 105 1162 81 1162 q 302 1166 204 1162 q 496 1171 400 1171 q 598 1166 549 1171 q 685 1162 643 1162 q 730 1138 707 1162 q 753 1090 753 1114 l 753 1017 q 730 970 753 994 q 683 946 707 946 l 557 946 q 558 864 557 932 q 558 709 558 795 q 556 328 558 516 q 554 79 555 139 q 538 39 554 62 q 498 10 522 17 q 375 0 448 0 q 236 12 315 0 q 215 35 224 24 q 193 63 206 45 q 194 90 194 77 q 205 596 199 364 q 220 946 211 828 l 105 946 q 58 970 81 946 q 34 1017 34 994 z "},"t":{"ha":787,"x_min":34,"x_max":753,"o":"m 34 1017 l 34 1090 q 58 1138 34 1114 q 105 1162 81 1162 q 302 1166 204 1162 q 496 1171 400 1171 q 598 1166 549 1171 q 685 1162 643 1162 q 730 1138 707 1162 q 753 1090 753 1114 l 753 1017 q 730 970 753 994 q 683 946 707 946 l 557 946 q 558 864 557 932 q 558 709 558 795 q 556 328 558 516 q 554 79 555 139 q 538 39 554 62 q 498 10 522 17 q 375 0 448 0 q 236 12 315 0 q 215 35 224 24 q 193 63 206 45 q 194 90 194 77 q 205 596 199 364 q 220 946 211 828 l 105 946 q 58 970 81 946 q 34 1017 34 994 z "},"U":{"ha":818,"x_min":34,"x_max":784,"o":"m 438 0 q 274 31 342 0 q 162 111 207 62 q 92 219 118 161 q 54 335 66 278 q 38 438 41 392 q 35 505 35 484 l 35 523 q 35 657 35 589 q 34 796 34 726 q 37 1076 34 935 q 56 1126 37 1099 q 102 1159 76 1152 q 222 1171 168 1171 q 317 1165 275 1171 q 337 1164 328 1164 q 388 1130 366 1157 q 411 1076 411 1103 q 407 854 411 1017 q 397 512 403 692 l 397 460 q 400 347 397 410 q 412 237 404 283 q 438 191 421 191 q 489 289 470 197 q 518 509 509 380 q 532 752 528 637 q 535 912 535 868 q 537 1027 535 981 q 538 1074 538 1057 q 553 1118 538 1101 q 589 1146 568 1136 q 630 1161 610 1157 q 659 1166 650 1166 q 692 1161 671 1166 q 733 1146 712 1157 q 769 1116 754 1135 q 783 1069 783 1097 q 783 1029 783 1053 q 784 951 784 996 q 782 805 784 887 q 772 632 779 722 q 749 451 764 541 q 710 280 734 361 q 648 136 685 199 q 559 37 610 73 q 438 0 507 0 z "},"u":{"ha":818,"x_min":34,"x_max":784,"o":"m 438 0 q 274 31 342 0 q 162 111 207 62 q 92 219 118 161 q 54 335 66 278 q 38 438 41 392 q 35 505 35 484 l 35 523 q 35 657 35 589 q 34 796 34 726 q 37 1076 34 935 q 56 1126 37 1099 q 102 1159 76 1152 q 222 1171 168 1171 q 317 1165 275 1171 q 337 1164 328 1164 q 388 1130 366 1157 q 411 1076 411 1103 q 407 854 411 1017 q 397 512 403 692 l 397 460 q 400 347 397 410 q 412 237 404 283 q 438 191 421 191 q 489 289 470 197 q 518 509 509 380 q 532 752 528 637 q 535 912 535 868 q 537 1027 535 981 q 538 1074 538 1057 q 553 1118 538 1101 q 589 1146 568 1136 q 630 1161 610 1157 q 659 1166 650 1166 q 692 1161 671 1166 q 733 1146 712 1157 q 769 1116 754 1135 q 783 1069 783 1097 q 783 1029 783 1053 q 784 951 784 996 q 782 805 784 887 q 772 632 779 722 q 749 451 764 541 q 710 280 734 361 q 648 136 685 199 q 559 37 610 73 q 438 0 507 0 z "},"V":{"ha":850,"x_min":34,"x_max":816,"o":"m 673 1168 q 729 1158 693 1167 q 795 1119 764 1148 q 810 1091 804 1108 q 816 1061 816 1074 l 816 1045 q 742 747 787 948 q 654 354 696 547 q 593 82 610 152 q 543 27 581 45 q 462 5 504 9 q 405 0 420 0 q 350 6 393 0 q 269 32 308 13 q 222 89 230 52 q 221 95 222 89 q 217 119 220 102 q 208 168 214 136 q 193 248 202 199 q 169 369 183 298 q 136 536 155 439 q 92 758 117 632 q 34 1041 66 883 l 34 1054 q 46 1095 34 1073 q 77 1126 58 1116 q 164 1155 117 1145 q 255 1168 212 1165 q 320 1171 298 1171 q 364 1152 340 1171 q 393 1110 389 1133 l 445 569 q 467 647 446 572 q 516 823 488 722 q 567 1007 544 924 q 595 1110 589 1090 q 625 1151 601 1133 q 673 1168 650 1168 z "},"v":{"ha":850,"x_min":34,"x_max":816,"o":"m 673 1168 q 729 1158 693 1167 q 795 1119 764 1148 q 810 1091 804 1108 q 816 1061 816 1074 l 816 1045 q 742 747 787 948 q 654 354 696 547 q 593 82 610 152 q 543 27 581 45 q 462 5 504 9 q 405 0 420 0 q 350 6 393 0 q 269 32 308 13 q 222 89 230 52 q 221 95 222 89 q 217 119 220 102 q 208 168 214 136 q 193 248 202 199 q 169 369 183 298 q 136 536 155 439 q 92 758 117 632 q 34 1041 66 883 l 34 1054 q 46 1095 34 1073 q 77 1126 58 1116 q 164 1155 117 1145 q 255 1168 212 1165 q 320 1171 298 1171 q 364 1152 340 1171 q 393 1110 389 1133 l 445 569 q 467 647 446 572 q 516 823 488 722 q 567 1007 544 924 q 595 1110 589 1090 q 625 1151 601 1133 q 673 1168 650 1168 z "},"W":{"ha":1184,"x_min":34,"x_max":1150,"o":"m 865 1128 q 917 1147 883 1139 q 985 1158 951 1154 q 1034 1162 1019 1162 q 1068 1157 1050 1162 q 1099 1146 1086 1153 q 1131 1119 1114 1140 q 1148 1074 1148 1097 l 1150 905 q 1135 563 1150 730 q 1099 252 1126 363 q 1011 52 1072 141 q 972 20 998 31 q 922 5 947 9 q 888 2 897 2 q 783 14 824 2 q 689 108 726 50 q 631 225 652 166 q 602 325 610 283 q 593 366 593 366 q 576 280 587 328 q 547 183 565 233 q 502 93 528 134 q 440 26 476 52 q 357 0 404 0 l 273 14 q 177 67 224 24 q 115 158 131 110 q 64 432 81 286 q 40 695 46 578 q 34 840 34 812 q 37 1017 34 951 q 39 1069 39 1052 q 59 1118 39 1095 q 99 1146 79 1142 q 132 1155 114 1149 q 173 1165 151 1160 q 217 1171 195 1171 q 263 1167 239 1171 q 308 1155 287 1163 q 340 1126 325 1147 q 364 1079 355 1105 l 347 608 q 345 522 345 555 q 359 447 345 444 q 412 516 383 447 q 457 671 440 585 q 481 711 463 692 q 519 734 499 730 q 576 738 540 736 q 650 741 612 740 l 654 741 q 687 735 664 741 q 735 706 711 729 q 772 631 759 682 q 793 545 783 583 q 823 419 814 457 q 832 378 832 382 q 840 412 838 378 q 844 494 842 446 q 852 610 847 557 l 841 1062 q 847 1097 841 1078 q 865 1128 854 1116 z "},"w":{"ha":1184,"x_min":34,"x_max":1150,"o":"m 865 1128 q 917 1147 883 1139 q 985 1158 951 1154 q 1034 1162 1019 1162 q 1068 1157 1050 1162 q 1099 1146 1086 1153 q 1131 1119 1114 1140 q 1148 1074 1148 1097 l 1150 905 q 1135 563 1150 730 q 1099 252 1126 363 q 1011 52 1072 141 q 972 20 998 31 q 922 5 947 9 q 888 2 897 2 q 783 14 824 2 q 689 108 726 50 q 631 225 652 166 q 602 325 610 283 q 593 366 593 366 q 576 280 587 328 q 547 183 565 233 q 502 93 528 134 q 440 26 476 52 q 357 0 404 0 l 273 14 q 177 67 224 24 q 115 158 131 110 q 64 432 81 286 q 40 695 46 578 q 34 840 34 812 q 37 1017 34 951 q 39 1069 39 1052 q 59 1118 39 1095 q 99 1146 79 1142 q 132 1155 114 1149 q 173 1165 151 1160 q 217 1171 195 1171 q 263 1167 239 1171 q 308 1155 287 1163 q 340 1126 325 1147 q 364 1079 355 1105 l 347 608 q 345 522 345 555 q 359 447 345 444 q 412 516 383 447 q 457 671 440 585 q 481 711 463 692 q 519 734 499 730 q 576 738 540 736 q 650 741 612 740 l 654 741 q 687 735 664 741 q 735 706 711 729 q 772 631 759 682 q 793 545 783 583 q 823 419 814 457 q 832 378 832 382 q 840 412 838 378 q 844 494 842 446 q 852 610 847 557 l 841 1062 q 847 1097 841 1078 q 865 1128 854 1116 z "},"X":{"ha":831,"x_min":34,"x_max":797,"o":"m 360 202 q 347 179 357 196 q 308 117 332 155 q 259 40 285 80 q 233 18 252 29 q 191 7 215 7 l 182 7 q 116 31 158 12 q 45 87 75 50 q 37 108 40 96 q 34 128 34 119 q 38 153 34 140 q 50 173 43 166 q 67 198 56 182 q 144 309 96 239 q 239 459 191 379 q 225 490 235 467 q 205 538 216 511 q 111 789 148 678 q 56 960 74 900 q 45 995 50 982 l 43 1010 q 53 1048 43 1025 q 81 1080 62 1070 q 92 1086 85 1083 q 150 1119 113 1100 q 232 1155 187 1139 q 317 1171 276 1171 q 361 1154 338 1171 q 392 1118 384 1137 q 449 941 427 1012 q 471 869 471 871 q 527 1002 498 923 q 568 1118 555 1081 q 594 1153 573 1135 q 640 1171 616 1171 l 646 1171 q 721 1156 688 1171 q 766 1132 753 1142 q 788 1101 779 1121 q 797 1065 797 1082 l 797 1051 q 693 785 751 909 q 583 578 634 661 q 754 182 661 375 q 760 165 758 175 q 763 149 763 155 q 756 118 763 135 q 739 92 749 101 q 591 14 673 35 q 515 2 543 2 q 479 12 496 2 q 455 38 463 22 q 444 58 450 46 q 397 136 422 93 q 360 202 372 180 z "},"x":{"ha":831,"x_min":34,"x_max":797,"o":"m 360 202 q 347 179 357 196 q 308 117 332 155 q 259 40 285 80 q 233 18 252 29 q 191 7 215 7 l 182 7 q 116 31 158 12 q 45 87 75 50 q 37 108 40 96 q 34 128 34 119 q 38 153 34 140 q 50 173 43 166 q 67 198 56 182 q 144 309 96 239 q 239 459 191 379 q 225 490 235 467 q 205 538 216 511 q 111 789 148 678 q 56 960 74 900 q 45 995 50 982 l 43 1010 q 53 1048 43 1025 q 81 1080 62 1070 q 92 1086 85 1083 q 150 1119 113 1100 q 232 1155 187 1139 q 317 1171 276 1171 q 361 1154 338 1171 q 392 1118 384 1137 q 449 941 427 1012 q 471 869 471 871 q 527 1002 498 923 q 568 1118 555 1081 q 594 1153 573 1135 q 640 1171 616 1171 l 646 1171 q 721 1156 688 1171 q 766 1132 753 1142 q 788 1101 779 1121 q 797 1065 797 1082 l 797 1051 q 693 785 751 909 q 583 578 634 661 q 754 182 661 375 q 760 165 758 175 q 763 149 763 155 q 756 118 763 135 q 739 92 749 101 q 591 14 673 35 q 515 2 543 2 q 479 12 496 2 q 455 38 463 22 q 444 58 450 46 q 397 136 422 93 q 360 202 372 180 z "},"Y":{"ha":819,"x_min":34,"x_max":785,"o":"m 200 530 l 196 541 q 106 777 142 671 q 52 943 70 883 q 39 984 43 969 q 35 998 37 989 q 34 1010 34 1006 q 46 1051 34 1031 q 75 1080 58 1072 q 168 1128 105 1101 q 294 1168 230 1156 l 304 1168 q 351 1151 327 1168 q 385 1112 375 1135 q 439 938 418 1007 q 461 869 461 869 q 504 969 481 908 q 543 1077 527 1030 q 555 1109 551 1097 q 588 1153 562 1135 q 634 1171 614 1171 q 703 1158 671 1171 q 753 1132 735 1146 q 777 1099 768 1120 q 785 1063 785 1079 l 785 1046 q 704 842 750 939 q 610 661 657 745 q 557 559 582 607 q 556 211 557 367 q 555 90 555 127 q 531 34 555 58 q 481 7 507 11 q 472 6 477 6 q 349 0 418 0 q 263 4 308 0 q 230 18 247 7 q 201 47 213 29 q 189 87 189 65 q 194 294 192 193 q 200 530 197 420 z "},"y":{"ha":819,"x_min":34,"x_max":785,"o":"m 200 530 l 196 541 q 106 777 142 671 q 52 943 70 883 q 39 984 43 969 q 35 998 37 989 q 34 1010 34 1006 q 46 1051 34 1031 q 75 1080 58 1072 q 168 1128 105 1101 q 294 1168 230 1156 l 304 1168 q 351 1151 327 1168 q 385 1112 375 1135 q 439 938 418 1007 q 461 869 461 869 q 504 969 481 908 q 543 1077 527 1030 q 555 1109 551 1097 q 588 1153 562 1135 q 634 1171 614 1171 q 703 1158 671 1171 q 753 1132 735 1146 q 777 1099 768 1120 q 785 1063 785 1079 l 785 1046 q 704 842 750 939 q 610 661 657 745 q 557 559 582 607 q 556 211 557 367 q 555 90 555 127 q 531 34 555 58 q 481 7 507 11 q 472 6 477 6 q 349 0 418 0 q 263 4 308 0 q 230 18 247 7 q 201 47 213 29 q 189 87 189 65 q 194 294 192 193 q 200 530 197 420 z "},"Z":{"ha":801,"x_min":34,"x_max":767,"o":"m 412 238 q 511 245 446 238 q 604 252 573 252 q 642 241 621 252 q 675 213 663 230 q 692 165 687 189 q 696 123 696 140 q 691 73 696 94 q 690 66 691 69 q 626 23 685 41 q 462 0 567 5 q 405 -1 431 -1 q 314 1 350 -1 q 271 5 277 4 q 195 20 235 9 q 117 50 154 31 q 57 97 81 68 q 34 165 34 126 q 37 191 34 178 q 179 605 98 411 q 334 932 260 798 l 123 911 q 75 931 102 911 q 41 979 48 951 q 37 1015 37 992 q 46 1087 37 1048 q 69 1123 52 1105 q 106 1145 86 1140 q 249 1164 181 1159 q 380 1170 316 1170 q 427 1171 380 1170 q 504 1167 458 1171 q 598 1152 549 1164 q 689 1118 646 1141 q 699 1112 689 1118 q 723 1093 709 1105 q 749 1060 737 1080 q 767 1014 762 1040 l 767 1006 q 764 974 767 991 q 755 937 762 956 q 752 932 753 935 q 640 723 688 815 q 543 532 591 631 q 471 376 503 450 q 421 260 439 302 q 412 238 416 247 z "},"z":{"ha":801,"x_min":34,"x_max":767,"o":"m 412 238 q 511 245 446 238 q 604 252 573 252 q 642 241 621 252 q 675 213 663 230 q 692 165 687 189 q 696 123 696 140 q 691 73 696 94 q 690 66 691 69 q 626 23 685 41 q 462 0 567 5 q 405 -1 431 -1 q 314 1 350 -1 q 271 5 277 4 q 195 20 235 9 q 117 50 154 31 q 57 97 81 68 q 34 165 34 126 q 37 191 34 178 q 179 605 98 411 q 334 932 260 798 l 123 911 q 75 931 102 911 q 41 979 48 951 q 37 1015 37 992 q 46 1087 37 1048 q 69 1123 52 1105 q 106 1145 86 1140 q 249 1164 181 1159 q 380 1170 316 1170 q 427 1171 380 1170 q 504 1167 458 1171 q 598 1152 549 1164 q 689 1118 646 1141 q 699 1112 689 1118 q 723 1093 709 1105 q 749 1060 737 1080 q 767 1014 762 1040 l 767 1006 q 764 974 767 991 q 755 937 762 956 q 752 932 753 935 q 640 723 688 815 q 543 532 591 631 q 471 376 503 450 q 421 260 439 302 q 412 238 416 247 z "},"[":{"ha":592,"x_min":34,"x_max":558,"o":"m 367 175 q 406 170 370 174 q 490 155 459 165 q 532 131 513 149 q 558 91 551 113 q 543 46 558 62 q 507 22 527 30 q 472 11 487 14 q 372 0 432 4 l 300 2 q 111 83 185 8 q 104 93 108 88 l 87 126 q 73 174 79 150 q 41 472 43 435 q 34 700 39 509 l 34 846 q 92 1109 38 1036 q 136 1137 114 1128 q 140 1139 138 1139 q 342 1173 222 1167 q 414 1168 385 1173 q 496 1155 472 1163 q 538 1129 523 1147 q 554 1093 554 1110 q 545 1062 554 1078 q 519 1038 535 1047 q 486 1025 504 1028 q 396 1012 453 1017 q 321 1001 339 1007 l 326 857 l 337 596 q 354 294 346 394 q 367 175 362 195 z "},"\\":{"ha":665,"x_min":34,"x_max":631,"o":"m 328 1100 l 376 951 l 610 189 q 631 90 631 128 q 612 32 631 51 q 559 6 593 12 q 481 -1 525 -1 q 434 0 458 -1 q 388 22 409 0 q 349 78 366 44 q 317 149 331 112 l 80 890 q 48 1017 61 958 q 35 1084 36 1075 q 34 1096 34 1090 q 54 1149 34 1127 q 104 1184 73 1172 q 171 1196 136 1196 q 262 1173 218 1196 q 328 1100 306 1149 z "},"]":{"ha":592,"x_min":34,"x_max":558,"o":"m 225 175 q 238 294 230 195 q 255 596 246 394 l 266 857 l 271 1001 q 196 1012 253 1007 q 106 1025 139 1017 q 73 1038 88 1028 q 47 1062 57 1047 q 38 1093 38 1078 q 54 1129 38 1110 q 96 1155 69 1147 q 178 1168 120 1163 q 250 1173 208 1173 q 452 1139 370 1167 q 456 1137 454 1139 q 500 1109 478 1128 q 558 846 554 1036 l 558 700 q 551 472 553 509 q 519 174 549 435 q 505 126 513 150 l 488 93 q 481 83 484 88 q 292 2 407 8 l 220 0 q 120 11 160 4 q 85 22 105 14 q 50 46 65 30 q 34 91 34 62 q 60 131 41 113 q 102 155 79 149 q 186 170 133 165 q 225 175 222 174 z "},"_":{"ha":787,"x_min":34,"x_max":753,"o":"m 34 72 l 34 145 q 58 193 34 169 q 105 216 81 216 l 685 216 q 730 193 707 216 q 753 145 753 169 l 753 72 q 730 24 753 48 q 683 1 707 1 l 105 1 q 58 24 81 1 q 34 72 34 48 z "},"`":{"ha":389,"x_min":34,"x_max":355,"o":"m 307 1234 q 260 1223 280 1223 q 238 1227 248 1223 q 229 1232 233 1229 q 144 1303 180 1272 q 79 1356 107 1333 q 60 1372 66 1366 q 37 1402 43 1383 q 34 1421 34 1413 q 36 1433 34 1428 q 60 1468 44 1453 q 90 1488 76 1482 q 112 1492 100 1492 q 124 1491 115 1492 q 145 1486 134 1491 l 156 1481 q 258 1397 222 1431 q 327 1331 294 1363 q 355 1276 355 1298 q 352 1263 355 1269 q 307 1234 344 1242 z "},"{":{"ha":460,"x_min":34,"x_max":426,"o":"m 426 592 q 391 490 426 535 q 330 409 355 445 q 298 349 305 373 q 288 286 288 321 q 298 229 288 257 q 333 183 308 201 q 388 155 359 165 q 408 114 408 149 q 403 72 408 96 q 343 0 388 0 l 342 0 q 205 24 263 0 q 109 87 147 47 q 53 178 71 127 q 34 280 34 228 q 43 355 34 318 l 44 357 q 118 581 78 475 q 122 593 120 587 l 118 604 q 44 821 78 707 l 43 823 q 34 895 34 859 q 53 995 34 946 q 109 1082 71 1043 q 205 1143 147 1120 q 342 1166 263 1166 l 344 1166 q 403 1097 388 1166 q 408 1057 408 1074 q 383 1015 408 1023 q 333 989 359 1007 q 298 945 308 972 q 288 890 288 918 q 298 828 288 855 q 330 770 305 805 q 391 692 355 736 q 426 592 426 648 z "},"|":{"ha":283,"x_min":34,"x_max":250,"o":"m 178 0 l 105 0 q 57 24 81 0 q 34 71 34 47 l 34 1106 q 57 1152 34 1128 q 105 1175 81 1175 l 178 1175 q 226 1152 202 1175 q 250 1104 250 1128 l 250 71 q 226 24 250 47 q 178 0 202 0 z "},"}":{"ha":460,"x_min":34,"x_max":426,"o":"m 69 692 q 130 770 104 736 q 162 828 155 805 q 172 890 172 855 q 162 945 172 918 q 126 989 152 972 q 72 1017 101 1007 q 52 1057 52 1023 q 57 1097 52 1074 q 116 1166 72 1166 l 118 1166 q 255 1143 197 1166 q 351 1082 313 1120 q 407 995 389 1043 q 426 895 426 946 q 416 823 426 859 l 416 821 q 342 604 382 707 l 338 593 q 342 581 340 587 q 416 357 382 475 l 416 355 q 426 280 426 318 q 407 178 426 228 q 351 87 389 127 q 255 24 313 47 q 118 0 197 0 l 117 0 q 57 72 72 0 q 52 114 52 96 q 77 157 52 149 q 126 183 101 165 q 162 229 152 201 q 172 286 172 257 q 162 349 172 321 q 130 409 155 373 q 69 490 104 445 q 34 592 34 535 q 69 692 34 648 z "},"~":{"ha":1152,"x_min":58,"x_max":1108,"o":"m 1107 688 q 673 327 1044 327 q 629 328 652 327 q 353 534 487 342 q 121 366 191 366 q 77 398 90 366 q 58 545 58 481 q 101 691 58 625 q 241 791 144 758 q 384 813 304 813 q 469 808 424 813 q 644 656 553 779 q 753 586 690 586 l 757 586 q 839 692 839 600 q 838 714 839 703 q 981 791 844 782 q 1000 791 991 791 q 1108 703 1108 791 q 1107 688 1108 696 z "},"¢":{"ha":800,"x_min":34,"x_max":756,"o":"m 551 958 l 569 958 q 670 955 616 958 q 756 806 756 952 q 755 771 756 789 q 602 591 744 591 l 600 591 q 551 593 575 592 l 551 431 q 627 427 587 428 l 669 426 q 724 347 724 426 q 718 273 724 334 q 626 212 712 212 q 551 214 587 212 l 551 139 q 528 92 551 115 q 480 68 504 68 l 407 68 q 359 92 382 68 q 336 139 336 115 l 336 249 q 290 264 313 256 q 160 333 218 291 q 68 434 102 375 q 34 569 34 492 q 92 774 34 686 q 269 910 151 861 q 336 932 300 922 l 336 1038 q 359 1084 336 1061 q 407 1107 382 1107 l 480 1107 q 528 1084 504 1107 q 551 1036 551 1060 l 551 958 m 336 586 q 307 583 320 584 q 235 554 235 572 l 235 553 q 321 475 235 516 q 336 469 328 472 l 336 586 z "},"£":{"ha":897,"x_min":34,"x_max":863,"o":"m 171 784 q 200 1048 174 906 q 271 1145 216 1116 q 382 1179 325 1173 q 448 1182 422 1182 q 466 1181 458 1182 l 481 1181 q 588 1159 530 1179 q 693 1100 646 1139 q 758 1002 740 1061 q 763 962 763 983 q 755 906 763 932 q 737 867 748 880 q 703 845 718 850 q 679 838 687 839 q 674 837 675 838 l 658 837 q 648 838 654 838 q 607 848 629 840 q 578 878 585 856 q 556 932 570 911 q 525 963 542 952 q 492 977 507 973 q 466 981 476 980 l 454 981 q 433 968 444 981 q 416 915 422 955 q 415 891 415 903 l 412 832 q 411 801 411 818 l 411 784 l 517 784 q 551 766 534 784 q 568 731 568 749 l 568 677 q 551 641 568 659 q 515 624 533 624 l 422 624 q 431 569 425 597 l 517 569 q 551 552 534 569 q 568 517 568 534 l 568 462 q 551 427 568 444 q 515 410 533 410 l 448 410 q 491 203 450 309 l 494 203 q 621 206 530 205 l 642 206 q 735 201 682 206 q 827 177 787 196 q 863 125 863 159 q 863 117 863 121 q 861 96 861 108 q 852 47 859 72 q 819 7 845 22 q 795 2 814 5 q 754 -2 776 0 q 725 -3 733 -3 q 676 -7 725 -4 q 555 -10 627 -10 q 477 -9 523 -10 q 305 -6 433 -7 q 285 -4 294 -5 q 231 1 251 -1 q 162 30 186 10 q 130 71 138 50 q 122 100 122 92 l 122 109 q 167 183 132 161 q 229 209 201 204 q 208 410 220 295 l 87 410 q 52 427 69 410 q 34 462 34 444 l 34 517 q 52 552 34 534 q 87 569 69 569 l 180 569 q 175 624 177 595 l 87 624 q 52 641 69 624 q 34 677 34 659 l 34 731 q 52 766 34 749 q 87 784 69 784 l 171 784 z "},"±":{"ha":778,"x_min":34,"x_max":744,"o":"m 543 718 l 536 590 q 583 594 570 594 q 650 590 617 594 q 735 450 735 580 l 735 436 q 732 401 735 434 q 632 368 728 368 q 533 366 535 367 q 531 288 531 314 q 532 262 531 267 q 669 269 558 269 q 743 114 735 269 q 744 100 744 107 q 616 2 744 2 q 597 3 608 2 l 170 3 q 150 2 159 2 q 52 78 52 2 q 50 125 50 104 q 128 264 50 264 q 254 262 233 264 l 253 363 q 182 359 222 359 q 61 379 89 359 q 34 432 34 398 q 41 530 34 449 q 170 585 58 585 q 199 585 184 585 q 262 588 262 586 l 261 588 l 263 692 q 399 820 263 804 q 424 822 412 822 q 543 718 535 822 z "},"´":{"ha":389,"x_min":34,"x_max":355,"o":"m 81 1234 q 36 1263 45 1242 q 34 1275 34 1268 q 61 1331 34 1297 q 130 1397 94 1363 q 233 1481 166 1431 l 243 1486 q 271 1492 255 1491 l 277 1492 q 298 1488 289 1492 q 328 1468 313 1482 q 353 1433 344 1453 q 355 1421 355 1428 q 350 1398 355 1413 q 329 1372 345 1383 q 309 1356 321 1366 q 245 1303 281 1333 q 159 1232 208 1272 q 151 1227 155 1229 q 128 1223 140 1223 q 81 1234 108 1223 z "},"…":{"ha":829,"x_min":34,"x_max":795,"o":"m 752 216 q 781 192 766 216 q 795 144 795 168 l 795 71 q 781 24 795 47 q 753 0 767 0 l 620 0 q 591 24 605 0 q 576 71 576 47 l 576 144 q 591 192 576 168 q 620 216 605 216 l 752 216 m 480 216 q 509 192 494 216 q 523 144 523 168 l 523 71 q 509 24 523 47 q 481 0 495 0 l 348 0 q 319 24 333 0 q 304 71 304 47 l 304 144 q 319 192 304 168 q 348 216 333 216 l 480 216 m 210 216 q 238 192 224 216 q 252 144 252 168 l 252 71 q 238 24 252 47 q 211 0 224 0 l 77 0 q 48 24 62 0 q 34 71 34 47 l 34 144 q 48 192 34 168 q 77 216 62 216 l 210 216 z "},"€":{"ha":743,"x_min":34,"x_max":709,"o":"m 406 780 l 553 780 q 587 762 570 780 q 604 727 604 745 l 604 673 q 587 638 604 655 q 552 621 570 621 l 401 621 q 400 601 400 611 l 401 566 l 553 566 q 587 549 570 566 q 604 513 604 531 l 604 459 q 587 424 604 441 q 552 407 570 407 l 406 407 q 418 246 410 308 q 440 183 427 183 q 481 205 460 183 q 505 260 503 227 q 525 308 505 281 q 573 340 545 334 l 593 340 q 646 338 621 340 q 688 306 667 331 q 709 255 709 281 q 655 108 695 161 q 566 33 614 56 q 481 4 518 9 q 442 -1 445 -1 l 437 -1 q 383 6 425 -1 q 287 42 341 14 q 178 131 232 70 q 85 296 125 191 q 35 562 46 401 q 35 591 35 576 l 34 591 l 34 611 l 35 611 q 35 637 35 624 q 85 889 46 790 q 178 1046 125 989 q 287 1130 232 1103 q 383 1164 341 1157 q 437 1171 425 1171 l 442 1171 q 481 1166 445 1171 q 566 1139 518 1161 q 655 1067 614 1117 q 709 928 695 1017 q 688 880 709 903 q 646 849 667 856 q 593 847 621 847 l 573 847 q 525 879 545 854 q 505 924 505 903 q 481 976 503 955 q 440 996 460 996 q 418 937 427 996 q 406 780 410 877 z "},"™":{"ha":866,"x_min":34,"x_max":832,"o":"m 464 1166 q 547 1138 532 1163 q 570 1092 562 1113 q 583 1051 578 1072 q 590 1015 587 1031 q 593 1032 590 1017 q 607 1075 597 1050 q 632 1124 616 1099 q 672 1164 648 1149 q 718 1170 690 1170 q 733 1168 722 1170 q 755 1162 744 1166 q 772 1148 766 1158 q 810 1063 798 1110 q 825 930 822 1015 q 832 784 832 859 l 831 712 q 824 693 831 702 q 810 681 817 684 q 797 676 804 678 q 781 675 789 675 q 761 676 775 675 q 731 681 746 677 q 708 688 716 684 q 701 702 703 694 q 698 717 698 710 l 703 910 q 699 960 701 932 q 697 995 699 980 q 694 1009 696 1009 q 690 991 694 1008 q 677 938 686 975 q 667 901 673 922 q 651 869 662 879 q 631 857 641 859 q 616 854 621 854 l 615 854 q 583 855 598 854 q 558 857 567 856 q 541 867 549 859 q 531 884 533 875 q 511 950 524 921 q 488 980 498 980 q 482 947 482 980 q 483 911 482 933 l 490 710 q 480 690 487 699 q 466 677 473 681 q 447 672 457 674 q 427 671 436 671 q 408 673 417 671 q 389 677 398 675 q 375 681 382 680 q 358 693 367 683 q 349 714 349 703 q 349 736 349 722 q 347 812 347 764 q 350 873 347 823 q 360 986 352 924 q 375 1075 366 1033 l 261 1075 q 262 1040 262 1069 q 262 974 262 1010 q 261 811 262 891 q 260 705 260 730 q 253 688 260 697 q 235 675 246 678 q 182 671 214 671 q 122 676 156 671 q 113 685 117 681 q 103 698 109 690 q 104 709 104 703 q 108 925 106 826 q 115 1075 111 1024 l 65 1075 q 44 1085 54 1075 q 34 1105 34 1095 l 34 1137 q 44 1157 34 1147 q 65 1166 54 1166 q 151 1168 108 1166 q 235 1171 193 1171 q 263 1170 248 1171 q 332 1168 283 1168 q 464 1166 375 1167 z "},",":{"ha":286,"x_min":34,"x_max":252,"o":"m 36 156 q 60 200 36 178 q 107 222 83 222 l 180 222 q 228 201 204 222 q 252 158 252 179 l 252 5 q 224 -76 252 -17 q 173 -136 197 -136 l 100 -136 q 52 -113 76 -136 q 34 -37 34 -96 q 36 5 34 -18 l 36 156 z "},"^":{"ha":545,"x_min":34,"x_max":511,"o":"m 273 1326 q 245 1303 259 1315 q 159 1232 208 1272 q 151 1227 155 1229 q 128 1223 140 1223 q 81 1234 108 1223 q 36 1263 45 1242 q 34 1275 34 1268 q 61 1331 34 1297 q 130 1397 94 1363 q 212 1462 166 1431 q 271 1492 256 1492 l 274 1492 q 334 1461 289 1492 q 414 1397 378 1431 q 484 1331 450 1363 q 511 1276 511 1298 q 509 1263 511 1269 q 464 1234 500 1242 q 417 1223 437 1223 q 395 1227 404 1223 q 386 1232 390 1229 q 300 1303 337 1272 q 273 1326 286 1315 z "},"&":{"ha":1086,"x_min":34,"x_max":1053,"o":"m 431 0 l 422 0 q 260 21 327 0 q 151 75 194 42 q 84 144 109 108 q 50 214 60 181 q 36 268 39 247 q 34 289 34 289 l 34 304 q 55 415 34 362 q 129 525 77 469 q 271 644 180 581 q 226 746 239 701 q 210 809 212 790 q 200 892 200 852 q 253 1072 200 994 q 399 1178 306 1149 q 465 1187 434 1187 q 548 1171 512 1187 q 609 1131 585 1155 q 644 1084 633 1107 q 659 1050 650 1076 q 668 983 668 1024 l 668 979 q 637 863 668 941 q 541 724 606 786 l 431 629 q 503 557 458 595 q 570 503 548 519 q 587 596 574 549 q 618 653 600 644 q 687 633 661 648 q 727 605 714 618 q 739 591 739 591 q 797 503 778 552 q 818 401 815 454 q 872 393 844 397 q 922 390 901 390 q 979 394 945 390 q 1030 398 1010 398 q 1051 393 1048 398 q 1053 389 1053 391 q 1030 338 1053 376 q 967 277 1008 300 q 940 268 959 272 q 898 262 921 263 q 801 275 852 264 l 801 265 q 789 221 798 252 q 757 153 779 191 q 694 81 734 116 q 589 23 653 46 q 431 0 525 0 m 343 865 q 335 847 340 860 q 331 817 331 835 q 352 746 331 789 q 414 811 393 779 q 416 815 414 813 q 421 831 418 822 q 425 848 425 840 l 425 852 q 420 871 425 865 q 412 880 415 878 q 409 883 412 880 q 399 887 406 885 q 385 889 393 889 l 381 889 q 364 884 374 889 q 343 865 354 879 m 441 271 q 495 298 471 278 q 533 337 519 317 q 547 363 547 357 q 414 463 456 405 q 405 456 409 459 q 395 448 398 452 q 387 439 392 444 q 384 435 386 437 q 359 385 369 418 q 357 366 357 374 l 357 359 q 368 310 357 328 q 393 284 378 292 q 420 274 407 276 q 436 271 427 271 q 441 271 439 271 z "},"©":{"ha":10295,"x_min":34,"x_max":10232,"o":"m 422 0 q 34 535 34 0 q 36 637 34 583 l 36 650 q 153 1069 36 952 q 396 1173 256 1173 q 438 1171 416 1173 l 443 1171 q 482 1166 446 1171 q 567 1139 519 1161 q 655 1067 615 1117 q 709 928 696 1017 q 689 880 709 903 q 646 849 668 856 q 594 847 621 847 l 574 847 q 526 879 546 854 q 506 924 506 903 q 482 976 503 955 q 441 996 461 996 q 419 937 427 996 q 407 780 411 877 q 400 567 402 683 l 400 504 q 438 201 400 205 q 509 271 475 203 q 595 327 536 327 q 622 324 608 327 q 698 243 698 309 q 696 202 698 239 q 653 114 694 164 q 554 32 612 63 q 422 0 497 0 m 1150 0 q 986 31 1054 0 q 874 111 919 62 q 804 219 830 161 q 766 335 778 278 q 750 438 753 392 q 747 505 747 484 l 747 523 q 747 657 747 589 q 746 796 746 726 q 749 1076 746 935 q 768 1126 749 1099 q 814 1159 788 1152 q 934 1171 880 1171 q 1029 1165 987 1171 q 1049 1164 1040 1164 q 1100 1130 1078 1157 q 1123 1076 1123 1103 q 1119 854 1123 1017 q 1109 512 1115 692 l 1109 460 q 1113 347 1109 410 q 1124 237 1116 283 q 1150 191 1133 191 q 1201 289 1182 197 q 1231 509 1221 380 q 1244 752 1240 637 q 1247 912 1247 868 q 1249 1027 1247 981 q 1250 1074 1250 1057 q 1265 1118 1250 1101 q 1301 1146 1280 1136 q 1342 1161 1322 1157 q 1371 1166 1362 1166 q 1404 1161 1383 1166 q 1445 1146 1424 1157 q 1481 1116 1466 1135 q 1495 1069 1495 1097 q 1495 1029 1495 1053 q 1496 951 1496 996 q 1494 805 1496 887 q 1484 632 1491 722 q 1461 451 1476 541 q 1422 280 1447 361 q 1360 136 1397 199 q 1271 37 1322 73 q 1150 0 1219 0 m 1546 1017 l 1546 1090 q 1570 1138 1546 1114 q 1617 1162 1594 1162 q 1815 1166 1716 1162 q 2008 1171 1912 1171 q 2110 1166 2062 1171 q 2197 1162 2155 1162 q 2243 1138 2220 1162 q 2266 1090 2266 1114 l 2266 1017 q 2242 970 2266 994 q 2195 946 2219 946 l 2069 946 q 2070 864 2070 932 q 2070 709 2070 795 q 2069 328 2070 516 q 2066 79 2067 139 q 2050 39 2066 62 q 2010 10 2034 17 q 1887 0 1961 0 q 1748 12 1828 0 q 1727 35 1736 24 q 1706 63 1718 45 q 1706 90 1706 77 q 1717 596 1711 364 q 1733 946 1723 828 l 1617 946 q 1570 970 1594 946 q 1546 1017 1546 994 m 2367 1082 q 2380 1120 2367 1101 q 2406 1145 2392 1139 q 2439 1156 2421 1152 q 2585 1168 2506 1167 q 2775 1171 2684 1171 q 2839 1172 2809 1172 q 3091 1094 3091 1172 q 3090 1085 3091 1090 q 3089 1040 3090 1070 q 3079 982 3087 1010 q 3047 943 3071 961 q 2929 924 3023 926 q 2769 923 2835 923 l 2705 923 l 2704 745 l 2713 745 q 2764 748 2728 747 q 2823 750 2801 750 q 2874 728 2850 750 q 2904 684 2897 706 q 2905 676 2904 682 q 2908 659 2907 669 l 2909 659 l 2909 572 l 2908 572 q 2905 555 2907 562 q 2904 547 2904 549 q 2874 503 2897 525 q 2823 481 2850 481 q 2764 483 2801 481 q 2713 486 2728 484 l 2704 486 q 2705 333 2705 465 l 2705 233 l 2755 233 q 2998 248 2944 233 q 3008 248 3003 248 q 3068 191 3056 248 q 3078 125 3076 162 q 3080 74 3080 89 q 3005 18 3080 37 q 2673 1 2935 1 l 2633 1 q 2547 2 2609 1 q 2428 24 2485 3 q 2367 108 2371 44 q 2353 614 2353 471 q 2367 1082 2353 757 m 3730 1112 q 3754 1157 3730 1135 q 3801 1179 3777 1179 l 3874 1179 q 3922 1157 3898 1179 q 3946 1114 3946 1135 l 3946 962 q 3918 880 3946 939 q 3867 821 3891 821 l 3794 821 q 3746 843 3770 821 q 3728 920 3728 860 q 3730 962 3728 939 l 3730 1112 m 4515 990 q 4519 1081 4517 1047 q 4639 1164 4519 1164 q 4761 1072 4760 1161 q 4768 455 4768 785 q 4765 87 4768 275 q 4749 40 4765 58 q 4710 14 4732 23 q 4668 3 4688 5 q 4641 0 4648 0 q 4599 4 4631 0 q 4539 24 4568 8 q 4501 73 4509 40 q 4447 303 4479 194 q 4396 470 4416 412 q 4390 490 4392 482 q 4388 447 4389 478 q 4383 329 4386 398 q 4379 194 4381 260 q 4377 96 4377 128 q 4356 46 4377 64 q 4306 19 4335 28 q 4252 7 4278 9 q 4219 5 4227 5 q 4166 12 4206 5 q 4089 40 4125 20 q 4048 96 4053 60 q 4037 915 4038 284 l 4037 1079 q 4075 1144 4037 1114 q 4179 1171 4108 1171 q 4199 1170 4189 1171 q 4280 1166 4243 1170 q 4337 1157 4317 1162 q 4370 1140 4352 1153 q 4395 1110 4388 1127 q 4424 1048 4404 1090 q 4462 973 4443 1012 q 4496 906 4481 934 q 4513 880 4506 887 q 4515 990 4514 939 m 4847 1112 q 4871 1157 4847 1135 q 4918 1179 4894 1179 l 4991 1179 q 5039 1157 5015 1179 q 5063 1114 5063 1135 l 5063 962 q 5035 880 5063 939 q 4984 821 5008 821 l 4911 821 q 4863 843 4887 821 q 4845 920 4845 860 q 4847 962 4845 939 l 4847 1112 m 6033 0 q 5644 535 5644 0 q 5646 637 5644 583 l 5646 650 q 5763 1069 5646 952 q 6007 1173 5866 1173 q 6049 1171 6027 1173 l 6053 1171 q 6093 1166 6056 1171 q 6177 1139 6129 1161 q 6266 1067 6226 1117 q 6320 928 6306 1017 q 6299 880 6320 903 q 6257 849 6278 856 q 6205 847 6232 847 l 6184 847 q 6136 879 6156 854 q 6116 924 6116 903 q 6093 976 6114 955 q 6051 996 6072 996 q 6030 937 6038 996 q 6017 780 6021 877 q 6011 567 6013 683 l 6011 504 q 6049 201 6011 205 q 6119 271 6085 203 q 6205 327 6147 327 q 6232 324 6218 327 q 6308 243 6308 309 q 6307 202 6308 239 q 6264 114 6305 164 q 6165 32 6222 63 q 6033 0 6108 0 m 6761 0 q 6597 31 6664 0 q 6485 111 6529 62 q 6414 219 6441 161 q 6376 335 6388 278 q 6361 438 6364 392 q 6357 505 6357 484 l 6357 657 q 6356 796 6356 726 q 6359 1076 6356 935 q 6379 1126 6359 1099 q 6425 1159 6399 1152 q 6544 1171 6491 1171 q 6640 1165 6598 1171 q 6660 1164 6651 1164 q 6711 1130 6688 1157 q 6734 1076 6734 1103 q 6729 854 6734 1017 q 6720 512 6725 692 l 6720 460 q 6723 347 6720 410 q 6735 237 6726 283 q 6761 191 6744 191 q 6812 289 6793 197 q 6841 509 6831 380 q 6854 752 6851 637 q 6858 912 6858 868 q 6860 1027 6858 981 q 6860 1074 6860 1057 q 6876 1118 6860 1101 q 6912 1146 6891 1136 q 6953 1161 6933 1157 q 6982 1166 6973 1166 q 7014 1161 6994 1166 q 7056 1146 7035 1157 q 7091 1116 7077 1135 q 7106 1069 7106 1097 l 7106 1029 q 7107 951 7107 996 q 7104 805 7107 887 q 7094 632 7102 722 q 7072 451 7087 541 q 7032 280 7057 361 q 6970 136 7008 199 q 6881 37 6933 73 q 6761 0 6830 0 m 7184 83 q 7179 247 7182 131 q 7177 503 7177 363 q 7178 868 7177 692 q 7182 1098 7179 1044 q 7199 1141 7182 1118 q 7240 1171 7216 1164 l 7619 1166 q 7690 1150 7642 1166 q 7790 1078 7739 1134 q 7881 906 7842 1021 q 7919 591 7919 791 l 7919 584 q 7873 257 7917 376 q 7768 82 7829 138 q 7654 14 7707 27 q 7583 0 7601 0 l 7579 0 l 7346 2 q 7299 6 7337 2 q 7226 29 7260 11 q 7184 83 7191 47 m 7635 627 q 7626 758 7633 705 q 7608 856 7617 818 q 7590 918 7599 894 q 7540 962 7572 952 q 7517 954 7533 962 q 7507 836 7509 945 q 7505 728 7505 781 q 7507 623 7505 675 l 7506 538 q 7500 345 7504 439 q 7509 255 7502 283 q 7524 218 7515 227 q 7543 210 7533 210 l 7545 210 q 7606 338 7579 210 q 7635 544 7633 466 l 7635 627 m 8457 627 q 8449 758 8455 705 q 8430 856 8439 818 q 8413 918 8421 894 q 8362 962 8395 952 q 8340 954 8356 962 q 8329 836 8331 945 q 8328 728 8328 781 q 8329 623 8328 675 l 8329 538 q 8322 345 8327 439 q 8331 255 8325 283 q 8347 218 8338 227 q 8365 210 8356 210 l 8368 210 q 8428 338 8401 210 q 8457 544 8455 466 l 8457 627 m 8006 83 q 8002 247 8004 131 q 8000 503 8000 363 q 8001 868 8000 692 q 8004 1098 8002 1044 q 8021 1141 8004 1118 q 8063 1171 8038 1164 l 8442 1166 q 8513 1150 8464 1166 q 8613 1078 8561 1134 q 8703 906 8665 1021 q 8742 591 8742 791 l 8742 584 q 8695 257 8740 376 q 8590 82 8651 138 q 8476 14 8529 27 q 8406 0 8424 0 l 8401 0 l 8169 2 q 8121 6 8160 2 q 8048 29 8083 11 q 8006 83 8013 47 m 9178 243 q 9308 253 9222 245 q 9461 270 9393 261 q 9510 252 9484 270 q 9545 208 9536 233 q 9557 125 9555 171 q 9558 113 9557 119 l 9559 105 q 9540 55 9559 78 q 9501 24 9521 31 q 9134 0 9359 0 q 9001 7 9056 0 q 8956 12 8990 7 q 8885 35 8923 16 q 8837 90 8847 53 q 8822 285 8826 151 q 8818 480 8818 368 q 8820 697 8818 550 q 8832 1078 8822 845 q 8919 1160 8837 1143 q 9038 1171 8966 1171 q 9093 1167 9063 1171 q 9148 1157 9122 1164 q 9192 1123 9173 1149 q 9212 1072 9212 1098 l 9211 1065 q 9180 615 9186 818 q 9177 430 9177 522 q 9178 314 9177 367 q 9178 243 9178 262 m 9647 530 l 9643 541 q 9553 777 9589 671 q 9498 943 9517 883 q 9486 984 9490 969 q 9482 998 9484 989 q 9481 1010 9481 1006 q 9493 1051 9481 1031 q 9521 1080 9505 1072 q 9614 1128 9552 1101 q 9741 1168 9677 1156 l 9751 1168 q 9798 1151 9774 1168 q 9831 1112 9822 1135 q 9886 938 9865 1007 q 9908 869 9908 869 q 9951 969 9928 908 q 9990 1077 9974 1030 q 10002 1109 9998 1097 q 10035 1153 10009 1135 q 10081 1171 10061 1171 q 10150 1158 10118 1171 q 10200 1132 10182 1146 q 10223 1099 10215 1120 q 10232 1063 10232 1079 l 10232 1046 q 10150 842 10197 939 q 10057 661 10104 745 q 10004 559 10029 607 q 10003 211 10004 367 q 10002 90 10002 127 q 9978 34 10002 58 q 9928 7 9953 11 q 9919 6 9924 6 q 9795 0 9865 0 q 9710 4 9755 0 q 9677 18 9694 7 q 9648 47 9660 29 q 9636 87 9636 65 q 9641 294 9639 193 q 9647 530 9644 420 z "}}}
